<?xml version="1.0" encoding="utf-8"?>
<!-- Generator: Adobe Illustrator 17.0.0, SVG Export Plug-In . SVG Version: 6.00 Build 0)  -->
<!DOCTYPE svg PUBLIC "-//W3C//DTD SVG 1.1//EN" "http://www.w3.org/Graphics/SVG/1.1/DTD/svg11.dtd">
<svg version="1.1" id="Layer_1" xmlns="http://www.w3.org/2000/svg" xmlns:xlink="http://www.w3.org/1999/xlink" x="0px" y="0px"
	 width="200px" height="200px" viewBox="0 0 200 200" enable-background="new 0 0 200 200" xml:space="preserve">
<path opacity="0.1" fill="#FFFFFF" enable-background="new    " d="M171.493,140c6.463-11.606,10.158-24.965,10.158-39.192
	c0-44.565-36.127-80.692-80.692-80.692s-80.692,36.127-80.692,80.692c0,14.227,3.695,27.586,10.158,39.192H171.493z"/>
<rect x="43.186" y="96.084" fill="#7D6D64" width="117.718" height="44.193"/>
<path fill="#7D6D64" d="M162.585,96.409V45.673c0-1.084-0.989-1.963-2.208-1.963c0,0-30.89,0-51.902,0s-64.762,0-64.762,0
	c-1.22,0-2.208,0.879-2.208,1.963v50.736H162.585z"/>
<path opacity="0.2" fill="none" stroke="#DBD3C0" stroke-miterlimit="10" enable-background="new    " d="M43.143,125.402
	c5.385-7.45,14.331-14.183,25.537-19.255c0.645-0.292,1.297-0.578,1.95-0.859c0.29-0.156,0.582-0.299,0.874-0.446h-13.08
	c-5.805,3.064-10.955,6.534-15.281,10.288"/>
<path opacity="0.2" fill="none" stroke="#DBD3C0" stroke-miterlimit="10" enable-background="new    " d="M158.635,104.719h-8.06
	c4.256,2.358,7.786,5.17,10.413,8.366"/>
<path opacity="0.2" fill="none" stroke="#DBD3C0" stroke-miterlimit="10" enable-background="new    " d="M68.055,112.918
	c-9.314,5.216-16.174,11.853-19.236,18.939c-0.385,0.892-0.707,1.792-0.969,2.696h9.004c0.904-3.937,4.296-8.143,6.333-10.219
	c0.779-0.801,1.619-1.585,2.513-2.35c0.895-0.765,1.844-1.511,2.845-2.235s2.052-1.426,3.135-2.104
	c5.674-3.764,11.635-7.079,18.154-8.136c0.545-0.096,1.12-0.19,1.726-0.258c12.265,0.831,24.622,1.385,37.22,1.057
	c1.482,0.237,2.963,0.474,4.597,1.179c1.072,0.46,2.097,0.954,3.069,1.481c6.809,3.69,11.084,8.991,11.467,15.32
	c0.127,2.103-0.189,4.202-0.889,6.265h9.025c0.819-2.448,1.182-4.938,1.031-7.433c-0.578-9.548-8.536-17.145-20.639-21.405
	c-1.086-0.366-2.205-0.704-3.375-0.996h-18.403c-3.895,0.14-7.816,0.228-11.807,0H85.503c-4.825,1.199-9.525,3.49-14.053,6.396
	C70.304,111.697,69.164,112.297,68.055,112.918z"/>
<path opacity="0.2" fill="none" stroke="#DBD3C0" stroke-miterlimit="10" enable-background="new    " d="M138.748,129.457
	c-0.25-4.133-2.575-7.718-6.384-10.502c-0.762-0.557-1.583-1.081-2.459-1.572c-17.74-2.948-37.882-8.267-54.363,4.793
	c-0.969,0.768-1.926,1.6-2.869,2.5c-1.908,1.542-3.844,3.492-5.146,6.213c-0.531,0.919-1.037,2.261-0.695,3.069
	c0.018,0.2,0.043,0.397,0.067,0.595h8.115c0.283-1.711,0.989-3.309,2.199-4.532c0.676-0.823,1.375-1.605,2.093-2.342
	c5.031-5.161,11.045-8.16,17.452-8.587c0.749-0.123,1.504-0.237,2.259-0.341c9.132-0.278,18.818-0.235,27.061,5.045
	c0.697,0.637,1.301,1.319,1.803,2.041c1.003,1.445,1.596,3.052,1.701,4.788c0.08,1.319-0.128,2.636-0.59,3.929h9.018
	C138.589,132.876,138.851,131.168,138.748,129.457z"/>
<path opacity="0.2" fill="none" stroke="#DBD3C0" stroke-miterlimit="10" enable-background="new    " d="M120.415,131.793
	c-0.088-1.447-0.683-2.759-1.688-3.894c-10.45-7.313-24.453-5.954-33.786,4.305c-0.474,0.764-0.812,1.552-1.008,2.349h8.922
	c0.02-0.17,0.05-0.342,0.097-0.516c1.037-2.261,2.442-3.292,3.986-3.891c0.772-0.3,1.579-0.492,2.393-0.675
	c0.814-0.184,1.633-0.36,2.431-0.628c1.266-0.165,2.482-0.172,3.595-0.043c0.988,0.212,2.289,0.322,3.408,0.85
	c1.119,0.527,2.057,1.473,2.317,3.356c0.174,0.584,0.079,1.104-0.157,1.549h9.044C120.312,133.647,120.471,132.721,120.415,131.793z
	"/>
<path opacity="0.2" fill="none" stroke="#DBD3C0" stroke-miterlimit="10" enable-background="new    " d="M162.454,73.593
	c-5.542,8.738-14.75,16.634-26.284,22.583c-0.664,0.343-1.335,0.678-2.007,1.007c-0.298,0.183-0.599,0.35-0.9,0.523h13.463
	c5.974-3.594,11.275-7.663,15.728-12.067"/>
<path opacity="0.2" fill="none" stroke="#DBD3C0" stroke-miterlimit="10" enable-background="new    " d="M41.541,92.803
	c0,2.399,1.084,4.345,2.422,4.345h8.296c-4.38-2.999-8.013-6.578-10.718-10.643"/>
<path opacity="0.2" fill="none" stroke="#DBD3C0" stroke-miterlimit="10" enable-background="new    " d="M148.721,43.716
	c-0.931,4.617-4.421,28.55-6.518,30.986c-0.802,0.939-1.666,1.859-2.587,2.757c-0.921,0.897-1.898,1.772-2.928,2.621
	s-2.112,1.672-3.227,2.468c-5.84,4.415-11.976,8.302-18.686,9.542c-0.561,0.112-1.153,0.223-1.777,0.303
	c-12.624-0.974-25.343-1.625-38.309-1.24c-1.525-0.278-3.05-0.556-4.731-1.383c-1.104-0.539-2.158-1.119-3.159-1.737
	c-7.008-4.328-11.408-10.545-11.802-17.968c-0.131-2.466,0.195-23.928,0.915-26.347"/>
<path opacity="0.2" fill="none" stroke="#DBD3C0" stroke-miterlimit="10" enable-background="new    " d="M46.623,43.715
	c-0.843,2.871-1.216,24.792-1.061,27.717c0.595,11.198,8.786,20.109,21.243,25.105c1.118,0.429,2.27,0.826,3.474,1.168H89.22
	c4.008-0.164,8.045-0.268,12.152,0h17.861c4.966-1.406,9.803-4.093,14.464-7.502c1.18-0.682,2.353-1.386,3.495-2.114
	c9.586-6.118,16.647-13.902,19.798-22.212c0.397-1.046,0.728-21.102,0.998-22.162"/>
<path opacity="0.2" fill="none" stroke="#DBD3C0" stroke-miterlimit="10" enable-background="new    " d="M130.03,43.716
	c-0.292,2.006-1.018,22.881-2.263,24.315c-0.696,0.965-1.415,1.882-2.154,2.746c-5.178,6.052-11.368,9.571-17.962,10.072
	c-0.771,0.144-1.548,0.278-2.325,0.4c-9.399,0.326-19.368,0.275-27.852-5.916c-0.717-0.747-1.339-1.547-1.855-2.394
	c-1.033-1.694-1.643-3.579-1.751-5.615C73.786,65.777,74,45.232,74.475,43.716"/>
<path opacity="0.2" fill="none" stroke="#DBD3C0" stroke-miterlimit="10" enable-background="new    " d="M65.192,43.715
	c-0.597,1.967-0.867,22.971-0.76,24.977c0.257,4.848,2.65,9.052,6.571,12.317c0.784,0.653,1.629,1.268,2.531,1.844
	c18.259,3.457,38.991,9.696,55.954-5.622c0.998-0.901,1.983-1.877,2.953-2.932c1.963-1.809,3.956-4.096,5.297-7.287
	c0.547-1.078,1.067-21.652,0.715-22.6c-0.019-0.235-0.045-0.466-0.069-0.697"/>
<path opacity="0.2" fill="none" stroke="#DBD3C0" stroke-miterlimit="10" enable-background="new    " d="M111.668,43.716
	c-0.021,0.199-0.051,0.401-0.1,0.605c-1.067,2.652-2.513,22.861-4.103,23.564c-0.795,0.351-1.626,0.577-2.463,0.792
	c-0.837,0.216-1.681,0.422-2.502,0.736c-1.303,0.194-2.555,0.202-3.7,0.051c-1.017-0.249-2.356-0.378-3.508-0.997
	s-2.117-20.727-2.385-22.936c-0.18-0.684-0.082-1.295,0.162-1.817"/>
<path opacity="0.2" fill="none" stroke="#DBD3C0" stroke-miterlimit="10" enable-background="new    " d="M83.761,43.715
	c-0.354,1.063-0.517,21.149-0.46,22.238c0.09,1.697,0.703,3.236,1.737,4.567C122,88,110.206,58.504,119.812,46.471
	c0.488-0.897,0.836-1.82,1.037-2.755"/>
<rect x="43.164" y="97.4" fill="#997F5F" width="117.855" height="8.602"/>
<rect x="43.287" y="130.823" fill="#997F5F" width="117.855" height="8.602"/>
<rect x="40.215" y="96.294" fill="#E1B224" width="123.129" height="8.602"/>
<rect x="40.183" y="131.681" fill="#E1B224" width="123.216" height="8.602"/>
<rect x="154.763" y="104.52" fill="#E1B224" width="8.601" height="27.278"/>
<rect x="40.209" y="104.52" fill="#E1B224" width="8.601" height="27.278"/>
<rect x="94.457" y="40.75" fill="#E1B224" width="12.81" height="2.91"/>
<g>
	<circle opacity="0.1" fill="#FFFFFF" enable-background="new    " cx="44.147" cy="100.748" r="1.352"/>
	<circle fill="#433E43" cx="44.147" cy="100.472" r="1.352"/>
</g>
<g>
	<circle opacity="0.1" fill="#FFFFFF" enable-background="new    " cx="44.147" cy="117.706" r="1.352"/>
	<circle fill="#433E43" cx="44.147" cy="117.429" r="1.352"/>
</g>
<g>
	<circle opacity="0.1" fill="#FFFFFF" enable-background="new    " cx="159.285" cy="117.706" r="1.352"/>
	<circle fill="#433E43" cx="159.285" cy="117.429" r="1.352"/>
</g>
<g>
	<circle opacity="0.1" fill="#FFFFFF" enable-background="new    " cx="59.425" cy="100.748" r="1.352"/>
	<circle fill="#433E43" cx="59.425" cy="100.472" r="1.352"/>
</g>
<g>
	<circle opacity="0.1" fill="#FFFFFF" enable-background="new    " cx="74.703" cy="100.748" r="1.352"/>
	<circle fill="#433E43" cx="74.703" cy="100.472" r="1.352"/>
</g>
<g>
	<circle opacity="0.1" fill="#FFFFFF" enable-background="new    " cx="89.981" cy="100.748" r="1.352"/>
	<circle fill="#433E43" cx="89.981" cy="100.472" r="1.352"/>
</g>
<g>
	<circle opacity="0.1" fill="#FFFFFF" enable-background="new    " cx="111.485" cy="100.748" r="1.352"/>
	<circle fill="#433E43" cx="111.485" cy="100.472" r="1.352"/>
</g>
<g>
	<circle opacity="0.1" fill="#FFFFFF" enable-background="new    " cx="126.763" cy="100.748" r="1.352"/>
	<circle fill="#433E43" cx="126.763" cy="100.472" r="1.352"/>
</g>
<g>
	<circle opacity="0.1" fill="#FFFFFF" enable-background="new    " cx="142.041" cy="100.748" r="1.352"/>
	<circle fill="#433E43" cx="142.041" cy="100.472" r="1.352"/>
</g>
<g>
	<circle opacity="0.1" fill="#FFFFFF" enable-background="new    " cx="157.319" cy="100.748" r="1.352"/>
	<circle fill="#433E43" cx="157.319" cy="100.472" r="1.352"/>
</g>
<g>
	<circle opacity="0.1" fill="#FFFFFF" enable-background="new    " cx="44.516" cy="136.015" r="1.352"/>
	<circle fill="#433E43" cx="44.516" cy="135.738" r="1.352"/>
</g>
<g>
	<circle opacity="0.1" fill="#FFFFFF" enable-background="new    " cx="60.912" cy="136.015" r="1.352"/>
	<circle fill="#433E43" cx="60.912" cy="135.738" r="1.352"/>
</g>
<g>
	<circle opacity="0.1" fill="#FFFFFF" enable-background="new    " cx="77.307" cy="136.015" r="1.352"/>
	<circle fill="#433E43" cx="77.307" cy="135.738" r="1.352"/>
</g>
<g>
	<circle opacity="0.1" fill="#FFFFFF" enable-background="new    " cx="110.098" cy="136.015" r="1.352"/>
	<circle fill="#433E43" cx="110.098" cy="135.738" r="1.352"/>
</g>
<g>
	<circle opacity="0.1" fill="#FFFFFF" enable-background="new    " cx="126.494" cy="136.015" r="1.352"/>
	<circle fill="#433E43" cx="126.494" cy="135.738" r="1.352"/>
</g>
<g>
	<circle opacity="0.1" fill="#FFFFFF" enable-background="new    " cx="142.889" cy="136.015" r="1.352"/>
	<circle fill="#433E43" cx="142.889" cy="135.738" r="1.352"/>
</g>
<g>
	<circle opacity="0.1" fill="#FFFFFF" enable-background="new    " cx="159.285" cy="136.015" r="1.352"/>
	<circle fill="#433E43" cx="159.285" cy="135.738" r="1.352"/>
</g>
<g>
	<circle opacity="0.1" fill="#FFFFFF" enable-background="new    " cx="93.703" cy="136.015" r="1.352"/>
	<circle fill="#433E43" cx="93.703" cy="135.738" r="1.352"/>
</g>
<rect x="41.48" y="73.93" fill="#473C35" width="121.125" height="0.369"/>
<rect x="41.48" y="74.299" opacity="0.2" fill="#DBD3C0" enable-background="new    " width="121.125" height="0.369"/>
<g>
	<rect x="41.601" y="86.402" fill="#473C35" width="120.99" height="0.369"/>
	<rect x="41.601" y="86.771" opacity="0.2" fill="#DBD3C0" enable-background="new    " width="120.99" height="0.369"/>
</g>
<g>
	<rect x="41.601" y="61.277" fill="#473C35" width="120.99" height="0.369"/>
	<rect x="41.601" y="61.646" opacity="0.2" fill="#DBD3C0" enable-background="new    " width="120.99" height="0.369"/>
</g>
<g>
	<rect x="41.601" y="50.319" fill="#473C35" width="120.99" height="0.369"/>
	<rect x="41.601" y="50.688" opacity="0.2" fill="#DBD3C0" enable-background="new    " width="120.99" height="0.369"/>
</g>
<rect x="48.787" y="117.921" fill="#473C35" width="105.861" height="0.369"/>
<rect x="48.817" y="118.289" opacity="0.2" fill="#DBD3C0" enable-background="new    " width="106.044" height="0.369"/>
<rect x="48.817" y="96.263" opacity="0.6" fill="#DBD3C0" enable-background="new    " width="106.044" height="0.369"/>
<rect x="48.817" y="131.468" opacity="0.6" fill="#DBD3C0" enable-background="new    " width="106.044" height="0.369"/>
<linearGradient id="SVGID_1_" gradientUnits="userSpaceOnUse" x1="306" y1="-296.2017" x2="306" y2="-96.6517" gradientTransform="matrix(1 0 0 -1 -206 -95)">
	<stop  offset="0" style="stop-color:#000000;stop-opacity:0"/>
	<stop  offset="1" style="stop-color:#000000"/>
</linearGradient>
<polygon fill="url(#SVGID_1_)" points="200,200 0,200 40,128.333 40.125,140.361 163.458,140.361 163.458,128.958 "/>
<rect x="41.542" y="43.667" fill="#E1B224" width="4.405" height="52.631"/>
<rect x="41.679" y="43.78" fill="#E1B224" width="121.06" height="4.405"/>
<rect x="158.292" y="43.667" fill="#E1B224" width="4.405" height="52.631"/>
<linearGradient id="SVGID_2_" gradientUnits="userSpaceOnUse" x1="102" y1="69" x2="102" y2="96">
	<stop  offset="0" style="stop-color:#000000;stop-opacity:0"/>
	<stop  offset="1" style="stop-color:#000000"/>
</linearGradient>
<rect x="46" y="69" fill="url(#SVGID_2_)" width="112" height="27"/>
<circle opacity="0.3" fill="#2F1A16" enable-background="new    " cx="105.326" cy="107.834" r="0.154"/>
<polygon fill="#083F5E" points="103.266,60.604 91.003,64.038 86.261,64.528 85.771,68.943 83.645,69.597 83.155,73.521 
	82.664,95.595 123.705,95.759 122.07,72.213 118.636,67.308 114.221,65.51 109.48,62.73 104.738,61.258 "/>
<polyline fill="#051A23" points="97.543,62.934 95.213,65.632 96.562,67.594 95.745,68.78 101.631,72.377 104.533,73.726 
	109.193,65.755 109.071,63.179 103.675,61.463 98.034,63.057 "/>
<polyline fill="#FEF3DF" points="98.361,49.159 104.901,56.353 99.833,69.843 98.443,69.515 103.675,56.843 96.889,50.385 "/>
<path fill="#FEF3DF" d="M83.195,31.54c0,0-10.914,3.802-11.405,11.16c-0.491,7.358,0.613,13.612,0.613,13.612
	s1.839,1.349,3.188-0.613s2.821-10.056,6.009-11.405c3.188-1.349,10.424,1.226,10.424,1.226s7.481,1.104,4.169-5.151"/>
<path fill="#FEF3DF" d="M77.8,34.238c0,0,0.245-4.783-0.491-9.075s0.858-4.537,0.858-4.537l26.121,2.698l-5.927,25.835l-7.685,13.04
	l-2.085-0.123l-6.172-14.471l-0.899-0.572l-0.777-2.371"/>
<path fill="#F7C3AD" d="M96.194,40.247l-0.061-0.042c1.001,6.991-4.66,4.702-4.66,4.702s-5.518-3.924-8.584-2.821
	c-2.936,1.057-6.599,9.58-7.87,12.68c-0.035,0.196-0.078,0.394-0.128,0.592c-0.103,0.402-0.234,0.786-0.387,1.15
	c0.369-0.147,0.745-0.431,1.089-0.932c1.349-1.962,2.821-10.056,6.009-11.405c3.188-1.349,10.424,1.226,10.424,1.226
	S99.506,46.501,96.194,40.247z"/>
<path fill="#F7C3AD" d="M94.815,44.294c0,0.271-0.086,0.409-0.746,0.409s-0.368-0.164-1.799-0.327c0-0.271,1.138-0.572,1.799-0.572
	S94.815,44.023,94.815,44.294z"/>
<circle fill="#FEF3DF" cx="73.262" cy="38.408" r="1.349"/>
<polygon fill="#083F5E" points="77.616,28.597 76.451,23.937 76.573,21.117 75.47,18.909 80.865,18.051 80.375,16.089 81.111,6.401 
	81.601,16.334 84.544,17.438 84.667,10.815 91.412,18.419 99.26,20.013 109.071,23.324 110.665,23.324 112.014,24.428 
	109.071,24.673 112.75,25.899 109.193,26.145 113.363,28.475 108.335,27.371 106.863,30.069 106.25,31.295 109.071,36.691 
	106.128,33.012 105.514,38.162 106.005,49.935 111.973,54.677 105.024,51.529 101.59,47.728 100.487,50.18 100.364,46.501 
	98.361,49.199 99.812,40.922 99.873,37.917 97.175,29.701 90.635,27.861 96.481,25.899 82.398,29.21 78.106,24.673 "/>
<polygon fill="#083F5E" points="84.299,28.72 74.182,31.172 81.295,27.616 75.163,27.677 81.479,26.942 73.937,25.777 80.13,25.838 
	84.851,27.064 "/>
<ellipse fill="#FEF3DF" cx="100.2" cy="38.29" rx="1.839" ry="5.064"/>
<polygon fill="#FEF3DF" points="86.997,56.68 85.362,60.522 88.591,62.076 90.707,62.229 90.594,54.963 "/>
<polygon fill="#F7C3AD" points="86.864,57.406 91.8,57.007 87.109,56.884 84.534,52.194 "/>
<polygon fill="#F7C3AD" points="86.139,60.563 88.632,61.79 90.512,61.912 98.157,49.036 98.811,44.662 96.01,49.69 90.022,61.054 
	88.469,61.054 "/>
<polygon fill="#FEF3DF" points="105.208,72.377 98.443,69.515 99.015,67.962 105.944,71.335 "/>
<polyline fill="#051A23" points="101.631,72.377 103.593,82.351 103.103,87.91 104.901,80.389 104.533,73.726 "/>
<path fill="none" stroke="#083F5E" stroke-miterlimit="10" d="M95.827,21.117c0,0,1.594,0.368,0.368-3.802
	c-1.226-4.169,0.368-7.235,0.368-7.235"/>
<path fill="none" stroke="#083F5E" stroke-width="0.2835" stroke-miterlimit="10" d="M77.309,21.117c0,0-3.066,0.245-3.188,1.349
	c-0.123,1.104-4.66,3.066-4.66,3.066l-2.821-5.028"/>
<path fill="none" stroke="#083F5E" stroke-width="0.2835" stroke-miterlimit="10" d="M106.618,28.475l3.066,4.783
	c0,0,0.981,3.679,0.245,5.641"/>
<polyline fill="none" stroke="#083F5E" stroke-width="0.2835" stroke-miterlimit="10" points="105.147,40.86 108.948,44.662 
	108.703,47.237 111.033,49.813 "/>
<line fill="none" stroke="#051A23" stroke-width="0.2835" stroke-miterlimit="10" x1="111.205" y1="138.901" x2="108.738" y2="143.191"/>
<line fill="none" stroke="#051A23" stroke-width="0.2835" stroke-miterlimit="10" x1="105.487" y1="140.273" x2="106.17" y2="145.174"/>
<ellipse transform="matrix(-1 0.006 -0.006 -1 215.8682 291.0442)" fill="#051A23" cx="107.5" cy="145.844" rx="3.352" ry="3.72"/>
<polyline fill="#051A23" points="104.888,146.555 102.195,147.306 103.74,145.989 94.499,145.554 104.96,144.919 "/>
<circle fill="#051A23" cx="109.969" cy="148.568" r="1.553"/>
<polygon fill="#083F5E" points="111.229,148.254 111.495,146.597 110.125,148.169 "/>
<polyline fill="none" stroke="#FEF3DF" stroke-width="0.2835" stroke-miterlimit="10" points="111.307,148.499 111.033,148.715 
	111.285,148.944 "/>
<polyline fill="none" stroke="#FEF3DF" stroke-width="0.2835" stroke-miterlimit="10" points="110.161,148.95 110.435,148.734 
	110.184,148.506 "/>
<ellipse fill="#083F5E" cx="90.833" cy="34.083" rx="1.208" ry="1.292"/>
<path fill="#083F5E" d="M80.344,33.045c-0.078-0.633-0.564-1.129-1.178-1.129c-0.667,0-1.208,0.578-1.208,1.292
	c0,0.291,0.107,0.547,0.259,0.763C78.862,33.597,79.623,33.228,80.344,33.045z"/>
<path fill="#F7C3AD" d="M90.292,29.042c0,0,3.833,1.583,4.583,6.5C95.625,30.125,90.292,29.042,90.292,29.042z"/>
<path fill="#F7C3AD" d="M77.638,32.269c0,0,1.075-2.032,4.114-2.29C78.446,29.408,77.638,32.269,77.638,32.269z"/>
<polygon fill="#083F5E" points="82.419,47.605 88.125,50.125 87.5,52.5 87.417,50.5 83.083,49.583 "/>
</svg>
