<?xml version="1.0" encoding="utf-8"?>
<!-- Generator: Adobe Illustrator 17.0.0, SVG Export Plug-In . SVG Version: 6.00 Build 0)  -->
<!DOCTYPE svg PUBLIC "-//W3C//DTD SVG 1.1//EN" "http://www.w3.org/Graphics/SVG/1.1/DTD/svg11.dtd">
<svg version="1.1" id="Layer_1" xmlns="http://www.w3.org/2000/svg" xmlns:xlink="http://www.w3.org/1999/xlink" x="0px" y="0px"
	 width="200px" height="200px" viewBox="0 0 200 200" enable-background="new 0 0 200 200" xml:space="preserve">
<path opacity="0.1" fill="#FFFFFF" enable-background="new    " d="M171.493,140c6.463-11.606,10.158-24.965,10.158-39.192
	c0-44.565-36.127-80.692-80.692-80.692s-80.692,36.127-80.692,80.692c0,14.227,3.695,27.586,10.158,39.192H171.493z"/>
<rect x="43.186" y="96.084" fill="#7D6D64" width="117.718" height="44.193"/>
<path fill="#7D6D64" d="M162.585,96.409V45.673c0-1.084-0.989-1.963-2.208-1.963c0,0-30.89,0-51.902,0s-64.762,0-64.762,0
	c-1.22,0-2.208,0.879-2.208,1.963v50.736H162.585z"/>
<path opacity="0.2" fill="none" stroke="#DBD3C0" stroke-miterlimit="10" enable-background="new    " d="M43.143,125.402
	c5.385-7.45,14.331-14.183,25.537-19.255c0.645-0.292,1.297-0.578,1.95-0.859c0.29-0.156,0.582-0.299,0.874-0.446h-13.08
	c-5.805,3.064-10.955,6.534-15.281,10.288"/>
<path opacity="0.2" fill="none" stroke="#DBD3C0" stroke-miterlimit="10" enable-background="new    " d="M158.635,104.719h-8.06
	c4.256,2.358,7.786,5.17,10.413,8.366"/>
<path opacity="0.2" fill="none" stroke="#DBD3C0" stroke-miterlimit="10" enable-background="new    " d="M68.055,112.918
	c-9.314,5.216-16.174,11.853-19.236,18.939c-0.385,0.892-0.707,1.792-0.969,2.696h9.004c0.904-3.937,4.296-8.143,6.333-10.219
	c0.779-0.801,1.619-1.585,2.513-2.35c0.895-0.765,1.844-1.511,2.845-2.235s2.052-1.426,3.135-2.104
	c5.674-3.764,11.635-7.079,18.154-8.136c0.545-0.096,1.12-0.19,1.726-0.258c12.265,0.831,24.622,1.385,37.22,1.057
	c1.482,0.237,2.963,0.474,4.597,1.179c1.072,0.46,2.097,0.954,3.069,1.481c6.809,3.69,11.084,8.991,11.467,15.32
	c0.127,2.103-0.189,4.202-0.889,6.265h9.025c0.819-2.448,1.182-4.938,1.031-7.433c-0.578-9.548-8.536-17.145-20.639-21.405
	c-1.086-0.366-2.205-0.704-3.375-0.996h-18.403c-3.895,0.14-7.816,0.228-11.807,0H85.503c-4.825,1.199-9.525,3.49-14.053,6.396
	C70.304,111.697,69.164,112.297,68.055,112.918z"/>
<path opacity="0.2" fill="none" stroke="#DBD3C0" stroke-miterlimit="10" enable-background="new    " d="M138.748,129.457
	c-0.25-4.133-2.575-7.718-6.384-10.502c-0.762-0.557-1.583-1.081-2.459-1.572c-17.74-2.948-37.882-8.267-54.363,4.793
	c-0.969,0.768-1.926,1.6-2.869,2.5c-1.908,1.542-3.844,3.492-5.146,6.213c-0.531,0.919-1.037,2.261-0.695,3.069
	c0.018,0.2,0.043,0.397,0.067,0.595h8.115c0.283-1.711,0.989-3.309,2.199-4.532c0.676-0.823,1.375-1.605,2.093-2.342
	c5.031-5.161,11.045-8.16,17.452-8.587c0.749-0.123,1.504-0.237,2.259-0.341c9.132-0.278,18.818-0.235,27.061,5.045
	c0.697,0.637,1.301,1.319,1.803,2.041c1.003,1.445,1.596,3.052,1.701,4.788c0.08,1.319-0.128,2.636-0.59,3.929h9.018
	C138.589,132.876,138.851,131.168,138.748,129.457z"/>
<path opacity="0.2" fill="none" stroke="#DBD3C0" stroke-miterlimit="10" enable-background="new    " d="M120.415,131.793
	c-0.088-1.447-0.683-2.759-1.688-3.894c-10.45-7.313-24.453-5.954-33.786,4.305c-0.474,0.764-0.812,1.552-1.008,2.349h8.922
	c0.02-0.17,0.05-0.342,0.097-0.516c1.037-2.261,2.442-3.292,3.986-3.891c0.772-0.3,1.579-0.492,2.393-0.675
	c0.814-0.184,1.633-0.36,2.431-0.628c1.266-0.165,2.482-0.172,3.595-0.043c0.988,0.212,2.289,0.322,3.408,0.85
	c1.119,0.527,2.057,1.473,2.317,3.356c0.174,0.584,0.079,1.104-0.157,1.549h9.044C120.312,133.647,120.471,132.721,120.415,131.793z
	"/>
<path opacity="0.2" fill="none" stroke="#DBD3C0" stroke-miterlimit="10" enable-background="new    " d="M162.454,73.593
	c-5.542,8.738-14.75,16.634-26.284,22.583c-0.664,0.343-1.335,0.678-2.007,1.007c-0.298,0.183-0.599,0.35-0.9,0.523h13.463
	c5.974-3.594,11.275-7.663,15.728-12.067"/>
<path opacity="0.2" fill="none" stroke="#DBD3C0" stroke-miterlimit="10" enable-background="new    " d="M41.541,92.803
	c0,2.399,1.084,4.345,2.422,4.345h8.296c-4.38-2.999-8.013-6.578-10.718-10.643"/>
<path opacity="0.2" fill="none" stroke="#DBD3C0" stroke-miterlimit="10" enable-background="new    " d="M148.721,43.716
	c-0.931,4.617-4.421,28.55-6.518,30.986c-0.802,0.939-1.666,1.859-2.587,2.757c-0.921,0.897-1.898,1.772-2.928,2.621
	s-2.112,1.672-3.227,2.468c-5.84,4.415-11.976,8.302-18.686,9.542c-0.561,0.112-1.153,0.223-1.777,0.303
	c-12.624-0.974-25.343-1.625-38.309-1.24c-1.525-0.278-3.05-0.556-4.731-1.383c-1.104-0.539-2.158-1.119-3.159-1.737
	c-7.008-4.328-11.408-10.545-11.802-17.968c-0.131-2.466,0.195-23.928,0.915-26.347"/>
<path opacity="0.2" fill="none" stroke="#DBD3C0" stroke-miterlimit="10" enable-background="new    " d="M46.623,43.715
	c-0.843,2.871-1.216,24.792-1.061,27.717c0.595,11.198,8.786,20.109,21.243,25.105c1.118,0.429,2.27,0.826,3.474,1.168H89.22
	c4.008-0.164,8.045-0.268,12.152,0h17.861c4.966-1.406,9.803-4.093,14.464-7.502c1.18-0.682,2.353-1.386,3.495-2.114
	c9.586-6.118,16.647-13.902,19.798-22.212c0.397-1.046,0.728-21.102,0.998-22.162"/>
<path opacity="0.2" fill="none" stroke="#DBD3C0" stroke-miterlimit="10" enable-background="new    " d="M130.03,43.716
	c-0.292,2.006-1.018,22.881-2.263,24.315c-0.696,0.965-1.415,1.882-2.154,2.746c-5.178,6.052-11.368,9.571-17.962,10.072
	c-0.771,0.144-1.548,0.278-2.325,0.4c-9.399,0.326-19.368,0.275-27.852-5.916c-0.717-0.747-1.339-1.547-1.855-2.394
	c-1.033-1.694-1.643-3.579-1.751-5.615C73.786,65.777,74,45.232,74.475,43.716"/>
<path opacity="0.2" fill="none" stroke="#DBD3C0" stroke-miterlimit="10" enable-background="new    " d="M65.192,43.715
	c-0.597,1.967-0.867,22.971-0.76,24.977c0.257,4.848,2.65,9.052,6.571,12.317c0.784,0.653,1.629,1.268,2.531,1.844
	c18.259,3.457,38.991,9.696,55.954-5.622c0.998-0.901,1.983-1.877,2.953-2.932c1.963-1.809,3.956-4.096,5.297-7.287
	c0.547-1.078,1.067-21.652,0.715-22.6c-0.019-0.235-0.045-0.466-0.069-0.697"/>
<path opacity="0.2" fill="none" stroke="#DBD3C0" stroke-miterlimit="10" enable-background="new    " d="M111.668,43.716
	c-0.021,0.199-0.051,0.401-0.1,0.605c-1.067,2.652-2.513,22.861-4.103,23.564c-0.795,0.351-1.626,0.577-2.463,0.792
	c-0.837,0.216-1.681,0.422-2.502,0.736c-1.303,0.194-2.555,0.202-3.7,0.051c-1.017-0.249-2.356-0.378-3.508-0.997
	s-2.117-20.727-2.385-22.936c-0.18-0.684-0.082-1.295,0.162-1.817"/>
<path opacity="0.2" fill="none" stroke="#DBD3C0" stroke-miterlimit="10" enable-background="new    " d="M83.761,43.715
	c-0.354,1.063-0.517,21.149-0.46,22.238c0.09,1.697,0.703,3.236,1.737,4.567C122,88,110.206,58.504,119.812,46.471
	c0.488-0.897,0.836-1.82,1.037-2.755"/>
<rect x="43.164" y="97.4" fill="#997F5F" width="117.855" height="8.602"/>
<rect x="43.287" y="130.823" fill="#997F5F" width="117.855" height="8.602"/>
<rect x="40.215" y="96.294" fill="#E1B224" width="123.129" height="8.602"/>
<rect x="40.183" y="131.681" fill="#E1B224" width="123.216" height="8.602"/>
<rect x="154.763" y="104.52" fill="#E1B224" width="8.601" height="27.278"/>
<rect x="40.209" y="104.52" fill="#E1B224" width="8.601" height="27.278"/>
<rect x="94.457" y="40.75" fill="#E1B224" width="12.81" height="2.91"/>
<g>
	<circle opacity="0.1" fill="#FFFFFF" enable-background="new    " cx="44.147" cy="100.748" r="1.352"/>
	<circle fill="#433E43" cx="44.147" cy="100.472" r="1.352"/>
</g>
<g>
	<circle opacity="0.1" fill="#FFFFFF" enable-background="new    " cx="44.147" cy="117.706" r="1.352"/>
	<circle fill="#433E43" cx="44.147" cy="117.429" r="1.352"/>
</g>
<g>
	<circle opacity="0.1" fill="#FFFFFF" enable-background="new    " cx="159.285" cy="117.706" r="1.352"/>
	<circle fill="#433E43" cx="159.285" cy="117.429" r="1.352"/>
</g>
<g>
	<circle opacity="0.1" fill="#FFFFFF" enable-background="new    " cx="59.425" cy="100.748" r="1.352"/>
	<circle fill="#433E43" cx="59.425" cy="100.472" r="1.352"/>
</g>
<g>
	<circle opacity="0.1" fill="#FFFFFF" enable-background="new    " cx="74.703" cy="100.748" r="1.352"/>
	<circle fill="#433E43" cx="74.703" cy="100.472" r="1.352"/>
</g>
<g>
	<circle opacity="0.1" fill="#FFFFFF" enable-background="new    " cx="89.981" cy="100.748" r="1.352"/>
	<circle fill="#433E43" cx="89.981" cy="100.472" r="1.352"/>
</g>
<g>
	<circle opacity="0.1" fill="#FFFFFF" enable-background="new    " cx="111.485" cy="100.748" r="1.352"/>
	<circle fill="#433E43" cx="111.485" cy="100.472" r="1.352"/>
</g>
<g>
	<circle opacity="0.1" fill="#FFFFFF" enable-background="new    " cx="126.763" cy="100.748" r="1.352"/>
	<circle fill="#433E43" cx="126.763" cy="100.472" r="1.352"/>
</g>
<g>
	<circle opacity="0.1" fill="#FFFFFF" enable-background="new    " cx="142.041" cy="100.748" r="1.352"/>
	<circle fill="#433E43" cx="142.041" cy="100.472" r="1.352"/>
</g>
<g>
	<circle opacity="0.1" fill="#FFFFFF" enable-background="new    " cx="157.319" cy="100.748" r="1.352"/>
	<circle fill="#433E43" cx="157.319" cy="100.472" r="1.352"/>
</g>
<g>
	<circle opacity="0.1" fill="#FFFFFF" enable-background="new    " cx="44.516" cy="136.015" r="1.352"/>
	<circle fill="#433E43" cx="44.516" cy="135.738" r="1.352"/>
</g>
<g>
	<circle opacity="0.1" fill="#FFFFFF" enable-background="new    " cx="60.912" cy="136.015" r="1.352"/>
	<circle fill="#433E43" cx="60.912" cy="135.738" r="1.352"/>
</g>
<g>
	<circle opacity="0.1" fill="#FFFFFF" enable-background="new    " cx="77.307" cy="136.015" r="1.352"/>
	<circle fill="#433E43" cx="77.307" cy="135.738" r="1.352"/>
</g>
<g>
	<circle opacity="0.1" fill="#FFFFFF" enable-background="new    " cx="110.098" cy="136.015" r="1.352"/>
	<circle fill="#433E43" cx="110.098" cy="135.738" r="1.352"/>
</g>
<g>
	<circle opacity="0.1" fill="#FFFFFF" enable-background="new    " cx="126.494" cy="136.015" r="1.352"/>
	<circle fill="#433E43" cx="126.494" cy="135.738" r="1.352"/>
</g>
<g>
	<circle opacity="0.1" fill="#FFFFFF" enable-background="new    " cx="142.889" cy="136.015" r="1.352"/>
	<circle fill="#433E43" cx="142.889" cy="135.738" r="1.352"/>
</g>
<g>
	<circle opacity="0.1" fill="#FFFFFF" enable-background="new    " cx="159.285" cy="136.015" r="1.352"/>
	<circle fill="#433E43" cx="159.285" cy="135.738" r="1.352"/>
</g>
<g>
	<circle opacity="0.1" fill="#FFFFFF" enable-background="new    " cx="93.703" cy="136.015" r="1.352"/>
	<circle fill="#433E43" cx="93.703" cy="135.738" r="1.352"/>
</g>
<rect x="41.48" y="73.93" fill="#473C35" width="121.125" height="0.369"/>
<rect x="41.48" y="74.299" opacity="0.2" fill="#DBD3C0" enable-background="new    " width="121.125" height="0.369"/>
<g>
	<rect x="41.601" y="86.402" fill="#473C35" width="120.99" height="0.369"/>
	<rect x="41.601" y="86.771" opacity="0.2" fill="#DBD3C0" enable-background="new    " width="120.99" height="0.369"/>
</g>
<g>
	<rect x="41.601" y="61.277" fill="#473C35" width="120.99" height="0.369"/>
	<rect x="41.601" y="61.646" opacity="0.2" fill="#DBD3C0" enable-background="new    " width="120.99" height="0.369"/>
</g>
<g>
	<rect x="41.601" y="50.319" fill="#473C35" width="120.99" height="0.369"/>
	<rect x="41.601" y="50.688" opacity="0.2" fill="#DBD3C0" enable-background="new    " width="120.99" height="0.369"/>
</g>
<rect x="48.787" y="117.921" fill="#473C35" width="105.861" height="0.369"/>
<rect x="48.817" y="118.289" opacity="0.2" fill="#DBD3C0" enable-background="new    " width="106.044" height="0.369"/>
<rect x="48.817" y="96.263" opacity="0.6" fill="#DBD3C0" enable-background="new    " width="106.044" height="0.369"/>
<rect x="48.817" y="131.468" opacity="0.6" fill="#DBD3C0" enable-background="new    " width="106.044" height="0.369"/>
<linearGradient id="SVGID_1_" gradientUnits="userSpaceOnUse" x1="306" y1="-296.2017" x2="306" y2="-96.6517" gradientTransform="matrix(1 0 0 -1 -206 -95)">
	<stop  offset="0" style="stop-color:#000000;stop-opacity:0"/>
	<stop  offset="1" style="stop-color:#000000"/>
</linearGradient>
<polygon fill="url(#SVGID_1_)" points="200,200 0,200 40,128.333 40.125,140.361 163.458,140.361 163.458,128.958 "/>
<rect x="41.542" y="43.667" fill="#E1B224" width="4.405" height="52.631"/>
<rect x="41.679" y="43.78" fill="#E1B224" width="121.06" height="4.405"/>
<rect x="158.292" y="43.667" fill="#E1B224" width="4.405" height="52.631"/>
<linearGradient id="SVGID_2_" gradientUnits="userSpaceOnUse" x1="102" y1="69" x2="102" y2="96">
	<stop  offset="0" style="stop-color:#000000;stop-opacity:0"/>
	<stop  offset="1" style="stop-color:#000000"/>
</linearGradient>
<rect x="46" y="69" fill="url(#SVGID_2_)" width="112" height="27"/>
<polygon opacity="0.5" points="101.928,48.991 103.574,70.024 108.489,49.507 106.823,70.539 114.888,51.044 109.953,71.556 
	120.968,53.562 112.884,73.05 126.579,57 115.546,74.984 131.583,61.274 117.873,77.31 135.856,66.278 119.807,79.972 
	139.295,71.889 121.301,82.904 141.813,77.969 122.318,86.033 143.349,84.368 122.832,89.283 143.866,90.928 122.832,92.574 
	143.349,97.489 122.318,95.823 141.813,103.888 121.301,98.953 139.295,109.968 119.807,101.884 135.856,115.579 117.873,104.546 
	131.583,120.583 115.546,106.873 126.579,124.856 112.884,108.807 120.968,128.295 109.953,110.301 114.888,130.813 
	106.823,111.318 108.489,132.349 103.574,111.832 101.928,132.866 100.283,111.832 95.368,132.349 97.033,111.318 88.969,130.813 
	93.904,110.301 82.889,128.295 90.972,108.807 77.278,124.856 88.31,106.873 72.274,120.583 85.984,104.546 68,115.579 
	84.05,101.884 64.562,109.968 82.556,98.953 62.044,103.888 81.539,95.823 60.507,97.489 81.024,92.574 59.991,90.928 
	81.024,89.283 60.507,84.368 81.539,86.033 62.044,77.969 82.556,82.904 64.562,71.889 84.05,79.972 68,66.278 85.984,77.31 
	72.274,61.274 88.31,74.984 77.278,57 90.972,73.05 82.889,53.562 93.904,71.556 88.969,51.044 97.033,70.539 95.368,49.507 
	100.283,70.024 "/>
<polyline fill="#A0392B" points="95.766,102.493 100,101.917 100.75,101.333 101.75,101.833 104.917,101.833 109.25,102.333 
	108.917,92.583 96.083,90.917 "/>
<polygon fill="#EFDDC8" points="104.388,106.679 105.051,108.858 106.471,107.816 "/>
<polygon fill="#EFDDC8" points="102.139,110.62 102.802,112.799 104.223,111.757 103.583,110.833 "/>
<circle opacity="0.3" fill="#2F1A16" enable-background="new    " cx="102.565" cy="110.999" r="0.118"/>
<circle opacity="0.3" fill="#2F1A16" enable-background="new    " cx="103.375" cy="111.765" r="0.154"/>
<circle opacity="0.3" fill="#2F1A16" enable-background="new    " cx="102.784" cy="111.943" r="0.154"/>
<circle opacity="0.3" fill="#2F1A16" enable-background="new    " cx="105.326" cy="107.834" r="0.154"/>
<circle opacity="0.3" fill="#2F1A16" enable-background="new    " cx="105.028" cy="107.625" r="0.097"/>
<polygon opacity="0.3" fill="#2F1A16" enable-background="new    " points="102.139,110.62 103.607,111.153 104.223,111.757 
	103.583,110.833 "/>
<polygon fill="#EFDDC8" points="98.836,107.761 103.056,105.665 100.445,103.121 98.778,104.74 "/>
<circle opacity="0.3" fill="#2F1A16" enable-background="new    " cx="99.463" cy="106.762" r="0.245"/>
<circle opacity="0.3" fill="#2F1A16" enable-background="new    " cx="100.75" cy="104.848" r="0.319"/>
<circle opacity="0.3" fill="#2F1A16" enable-background="new    " cx="101.316" cy="105.993" r="0.319"/>
<polygon opacity="0.3" fill="#2F1A16" enable-background="new    " points="98.836,107.761 99.422,104.583 100.445,103.121 
	98.778,104.74 "/>
<polygon opacity="0.3" fill="#2F1A16" enable-background="new    " points="104.966,108.575 105.93,107.523 106.471,107.816 
	105.051,108.858 "/>
<path fill="#EB583F" d="M110.25,85.917c-1.141-2.585-1.049-5.053-3.199-5.957c0.656-1.112,1.073-2.059,1.317-2.697
	c0.135-0.255,0.231-0.534,0.283-0.828c0.007-0.024,0.01-0.037,0.01-0.037l-0.005,0c0.024-0.149,0.04-0.3,0.04-0.456
	c0-1.559-1.264-2.824-2.824-2.824c-0.773,0-1.473,0.311-1.983,0.815c-0.51-0.504-1.21-0.815-1.983-0.815s-1.473,0.311-1.983,0.815
	c-0.51-0.504-1.21-0.815-1.983-0.815c-1.559,0-2.824,1.264-2.824,2.824c0,0.407,0.088,0.792,0.242,1.141
	c0.291,0.791,0.871,2.016,1.475,3.197c-1.796,0.892-1.752,4.025-2.917,5.636c-1.462,2.021-3,5.814-3,8.5
	c0,4.268,1.816,6.79,4.849,8.076l-0.099-0.243l1-0.833l0.417-1.083l0.25,0.75l1.167,0.5l1-0.833l1.833-6.083l0.333,6.583
	l1.417,0.167l0.583-1.167l0.167,1.333l1.75-0.333l1.917,0.333l-0.833,0.5l2.833-0.167l-0.667,0.5l0,0.012
	c3.103-1.355,5-3.979,5-8.262C113.833,91.546,111.456,88.649,110.25,85.917z"/>
<g>
	<path fill="#A0392B" d="M109.917,85.917c-1.141-2.585-1.049-5.053-3.199-5.957c0.656-1.112,1.073-2.059,1.317-2.697
		c0.135-0.255,0.231-0.534,0.283-0.828c0.007-0.024,0.01-0.037,0.01-0.037l-0.005,0c0.024-0.149,0.04-0.3,0.04-0.456
		c0-1.559-1.264-2.824-2.824-2.824c-0.773,0-1.473,0.311-1.983,0.815c-0.51-0.504-1.21-0.815-1.983-0.815
		c-0.36,0-0.701,0.073-1.018,0.196c1.056,0.409,1.807,1.427,1.807,2.627c0,0.155-0.016,0.307-0.04,0.456l0.005,0
		c0,0-0.003,0.013-0.01,0.037c-0.052,0.294-0.147,0.573-0.283,0.828c-0.244,0.637-0.661,1.584-1.317,2.697
		c2.15,0.904,2.058,3.373,3.199,5.957c1.206,2.733,3.583,5.629,3.583,8.25c0,3.432-1.233,5.784-3.314,7.286l1.064-0.203l1.917,0.333
		l-0.833,0.5l2.833-0.167l-0.667,0.5l0,0.012c3.103-1.355,5-3.979,5-8.262C113.5,91.546,111.123,88.649,109.917,85.917z"/>
</g>
<path fill="#A0392B" d="M98.605,79.713c0,0,0.379-4.783,0.474-3.647c0.095,1.137,0.852,3.789,0.852,3.789s2.889,1.089,3.504-4.12
	c0.616-5.209,0.616,4.357,0.616,4.357S98.936,80.187,98.605,79.713z"/>
<path fill="#FFFFFF" d="M116.634,77.169c-0.059-0.215-0.281-0.341-0.495-0.282c-0.214,0.058-0.341,0.28-0.282,0.494
	c0.238,0.873,0.015,2.42-0.769,3.5c-0.57,0.784-1.334,1.204-2.272,1.249c-1.507,0.069-1.649-0.682-1.829-1.636
	c-0.065-0.34-0.143-0.699-0.299-1.005c0.004-0.002,0.007-0.004,0.011-0.006c1.903-1.039,3.001-2.095,3.264-3.139
	c0.178-0.706-0.017-1.379-0.58-2.002c-0.806-0.893-1.635-1.236-2.466-1.02c-1.069,0.278-2.048,1.498-2.912,3.627
	c-0.506,1.249-0.815,2.419-0.919,2.837H95.787c-0.223,0-0.403,0.18-0.403,0.403s0.18,0.403,0.403,0.403h11.65l0.143-0.001
	c0.076,0.082,0.171,0.143,0.284,0.143c0.045,0,0.091-0.008,0.136-0.024c0.044-0.016,0.912-0.33,1.975-0.853
	c0.093,0.175,0.155,0.433,0.222,0.787c0.174,0.921,0.435,2.296,2.436,2.296c0.072,0,0.146-0.002,0.223-0.005
	c1.177-0.056,2.174-0.602,2.885-1.58C116.701,80.031,116.918,78.21,116.634,77.169z M111.12,74.1
	c0.091-0.024,0.182-0.036,0.274-0.036c0.44,0,0.898,0.269,1.391,0.816c0.376,0.417,0.506,0.831,0.397,1.266
	c-0.254,1.01-1.694,2.01-3.096,2.751c-0.004-0.002-0.005-0.005-0.009-0.006c-0.727-0.299-1.443-0.057-1.988,0.266
	C108.63,77.317,109.742,74.458,111.12,74.1z"/>
</svg>
