<?xml version="1.0" encoding="utf-8"?>
<!-- Generator: Adobe Illustrator 17.0.0, SVG Export Plug-In . SVG Version: 6.00 Build 0)  -->
<!DOCTYPE svg PUBLIC "-//W3C//DTD SVG 1.1//EN" "http://www.w3.org/Graphics/SVG/1.1/DTD/svg11.dtd">
<svg version="1.1" id="Layer_1" xmlns="http://www.w3.org/2000/svg" xmlns:xlink="http://www.w3.org/1999/xlink" x="0px" y="0px"
	 width="200px" height="200px" viewBox="0 0 200 200" enable-background="new 0 0 200 200" xml:space="preserve">
<path opacity="0.1" fill="#FFFFFF" enable-background="new    " d="M171.493,140c6.463-11.606,10.158-24.965,10.158-39.192
	c0-44.565-36.127-80.692-80.692-80.692s-80.692,36.127-80.692,80.692c0,14.227,3.695,27.586,10.158,39.192H171.493z"/>
<rect x="43.186" y="96.084" fill="#7D6D64" width="117.718" height="44.193"/>
<path fill="#7D6D64" d="M162.585,96.409V45.673c0-1.084-0.989-1.963-2.208-1.963c0,0-30.89,0-51.902,0s-64.762,0-64.762,0
	c-1.22,0-2.208,0.879-2.208,1.963v50.736H162.585z"/>
<path opacity="0.2" fill="none" stroke="#DBD3C0" stroke-miterlimit="10" enable-background="new    " d="M43.143,125.402
	c5.385-7.45,14.331-14.183,25.537-19.255c0.645-0.292,1.297-0.578,1.95-0.859c0.29-0.156,0.582-0.299,0.874-0.446h-13.08
	c-5.805,3.064-10.955,6.534-15.281,10.288"/>
<path opacity="0.2" fill="none" stroke="#DBD3C0" stroke-miterlimit="10" enable-background="new    " d="M158.635,104.719h-8.06
	c4.256,2.358,7.786,5.17,10.413,8.366"/>
<path opacity="0.2" fill="none" stroke="#DBD3C0" stroke-miterlimit="10" enable-background="new    " d="M68.055,112.918
	c-9.314,5.216-16.174,11.853-19.236,18.939c-0.385,0.892-0.707,1.792-0.969,2.696h9.004c0.904-3.937,4.296-8.143,6.333-10.219
	c0.779-0.801,1.619-1.585,2.513-2.35c0.895-0.765,1.844-1.511,2.845-2.235s2.052-1.426,3.135-2.104
	c5.674-3.764,11.635-7.079,18.154-8.136c0.545-0.096,1.12-0.19,1.726-0.258c12.265,0.831,24.622,1.385,37.22,1.057
	c1.482,0.237,2.963,0.474,4.597,1.179c1.072,0.46,2.097,0.954,3.069,1.481c6.809,3.69,11.084,8.991,11.467,15.32
	c0.127,2.103-0.189,4.202-0.889,6.265h9.025c0.819-2.448,1.182-4.938,1.031-7.433c-0.578-9.548-8.536-17.145-20.639-21.405
	c-1.086-0.366-2.205-0.704-3.375-0.996h-18.403c-3.895,0.14-7.816,0.228-11.807,0H85.503c-4.825,1.199-9.525,3.49-14.053,6.396
	C70.304,111.697,69.164,112.297,68.055,112.918z"/>
<path opacity="0.2" fill="none" stroke="#DBD3C0" stroke-miterlimit="10" enable-background="new    " d="M138.748,129.457
	c-0.25-4.133-2.575-7.718-6.384-10.502c-0.762-0.557-1.583-1.081-2.459-1.572c-17.74-2.948-37.882-8.267-54.363,4.793
	c-0.969,0.768-1.926,1.6-2.869,2.5c-1.908,1.542-3.844,3.492-5.146,6.213c-0.531,0.919-1.037,2.261-0.695,3.069
	c0.018,0.2,0.043,0.397,0.067,0.595h8.115c0.283-1.711,0.989-3.309,2.199-4.532c0.676-0.823,1.375-1.605,2.093-2.342
	c5.031-5.161,11.045-8.16,17.452-8.587c0.749-0.123,1.504-0.237,2.259-0.341c9.132-0.278,18.818-0.235,27.061,5.045
	c0.697,0.637,1.301,1.319,1.803,2.041c1.003,1.445,1.596,3.052,1.701,4.788c0.08,1.319-0.128,2.636-0.59,3.929h9.018
	C138.589,132.876,138.851,131.168,138.748,129.457z"/>
<path opacity="0.2" fill="none" stroke="#DBD3C0" stroke-miterlimit="10" enable-background="new    " d="M120.415,131.793
	c-0.088-1.447-0.683-2.759-1.688-3.894c-10.45-7.313-24.453-5.954-33.786,4.305c-0.474,0.764-0.812,1.552-1.008,2.349h8.922
	c0.02-0.17,0.05-0.342,0.097-0.516c1.037-2.261,2.442-3.292,3.986-3.891c0.772-0.3,1.579-0.492,2.393-0.675
	c0.814-0.184,1.633-0.36,2.431-0.628c1.266-0.165,2.482-0.172,3.595-0.043c0.988,0.212,2.289,0.322,3.408,0.85
	c1.119,0.527,2.057,1.473,2.317,3.356c0.174,0.584,0.079,1.104-0.157,1.549h9.044C120.312,133.647,120.471,132.721,120.415,131.793z
	"/>
<path opacity="0.2" fill="none" stroke="#DBD3C0" stroke-miterlimit="10" enable-background="new    " d="M162.454,73.593
	c-5.542,8.738-14.75,16.634-26.284,22.583c-0.664,0.343-1.335,0.678-2.007,1.007c-0.298,0.183-0.599,0.35-0.9,0.523h13.463
	c5.974-3.594,11.275-7.663,15.728-12.067"/>
<path opacity="0.2" fill="none" stroke="#DBD3C0" stroke-miterlimit="10" enable-background="new    " d="M41.541,92.803
	c0,2.399,1.084,4.345,2.422,4.345h8.296c-4.38-2.999-8.013-6.578-10.718-10.643"/>
<path opacity="0.2" fill="none" stroke="#DBD3C0" stroke-miterlimit="10" enable-background="new    " d="M148.721,43.716
	c-0.931,4.617-4.421,28.55-6.518,30.986c-0.802,0.939-1.666,1.859-2.587,2.757c-0.921,0.897-1.898,1.772-2.928,2.621
	s-2.112,1.672-3.227,2.468c-5.84,4.415-11.976,8.302-18.686,9.542c-0.561,0.112-1.153,0.223-1.777,0.303
	c-12.624-0.974-25.343-1.625-38.309-1.24c-1.525-0.278-3.05-0.556-4.731-1.383c-1.104-0.539-2.158-1.119-3.159-1.737
	c-7.008-4.328-11.408-10.545-11.802-17.968c-0.131-2.466,0.195-23.928,0.915-26.347"/>
<path opacity="0.2" fill="none" stroke="#DBD3C0" stroke-miterlimit="10" enable-background="new    " d="M46.623,43.715
	c-0.843,2.871-1.216,24.792-1.061,27.717c0.595,11.198,8.786,20.109,21.243,25.105c1.118,0.429,2.27,0.826,3.474,1.168H89.22
	c4.008-0.164,8.045-0.268,12.152,0h17.861c4.966-1.406,9.803-4.093,14.464-7.502c1.18-0.682,2.353-1.386,3.495-2.114
	c9.586-6.118,16.647-13.902,19.798-22.212c0.397-1.046,0.728-21.102,0.998-22.162"/>
<path opacity="0.2" fill="none" stroke="#DBD3C0" stroke-miterlimit="10" enable-background="new    " d="M130.03,43.716
	c-0.292,2.006-1.018,22.881-2.263,24.315c-0.696,0.965-1.415,1.882-2.154,2.746c-5.178,6.052-11.368,9.571-17.962,10.072
	c-0.771,0.144-1.548,0.278-2.325,0.4c-9.399,0.326-19.368,0.275-27.852-5.916c-0.717-0.747-1.339-1.547-1.855-2.394
	c-1.033-1.694-1.643-3.579-1.751-5.615C73.786,65.777,74,45.232,74.475,43.716"/>
<path opacity="0.2" fill="none" stroke="#DBD3C0" stroke-miterlimit="10" enable-background="new    " d="M65.192,43.715
	c-0.597,1.967-0.867,22.971-0.76,24.977c0.257,4.848,2.65,9.052,6.571,12.317c0.784,0.653,1.629,1.268,2.531,1.844
	c18.259,3.457,38.991,9.696,55.954-5.622c0.998-0.901,1.983-1.877,2.953-2.932c1.963-1.809,3.956-4.096,5.297-7.287
	c0.547-1.078,1.067-21.652,0.715-22.6c-0.019-0.235-0.045-0.466-0.069-0.697"/>
<path opacity="0.2" fill="none" stroke="#DBD3C0" stroke-miterlimit="10" enable-background="new    " d="M111.668,43.716
	c-0.021,0.199-0.051,0.401-0.1,0.605c-1.067,2.652-2.513,22.861-4.103,23.564c-0.795,0.351-1.626,0.577-2.463,0.792
	c-0.837,0.216-1.681,0.422-2.502,0.736c-1.303,0.194-2.555,0.202-3.7,0.051c-1.017-0.249-2.356-0.378-3.508-0.997
	s-2.117-20.727-2.385-22.936c-0.18-0.684-0.082-1.295,0.162-1.817"/>
<path opacity="0.2" fill="none" stroke="#DBD3C0" stroke-miterlimit="10" enable-background="new    " d="M83.761,43.715
	c-0.354,1.063-0.517,21.149-0.46,22.238c0.09,1.697,0.703,3.236,1.737,4.567C122,88,110.206,58.504,119.812,46.471
	c0.488-0.897,0.836-1.82,1.037-2.755"/>
<rect x="43.164" y="97.4" fill="#997F5F" width="117.855" height="8.602"/>
<rect x="43.287" y="130.823" fill="#997F5F" width="117.855" height="8.602"/>
<rect x="40.215" y="96.294" fill="#E1B224" width="123.129" height="8.602"/>
<rect x="40.183" y="131.681" fill="#E1B224" width="123.216" height="8.602"/>
<rect x="154.763" y="104.52" fill="#E1B224" width="8.601" height="27.278"/>
<rect x="40.209" y="104.52" fill="#E1B224" width="8.601" height="27.278"/>
<rect x="94.457" y="40.75" fill="#E1B224" width="12.81" height="2.91"/>
<g>
	<circle opacity="0.1" fill="#FFFFFF" enable-background="new    " cx="44.147" cy="100.748" r="1.352"/>
	<circle fill="#433E43" cx="44.147" cy="100.472" r="1.352"/>
</g>
<g>
	<circle opacity="0.1" fill="#FFFFFF" enable-background="new    " cx="44.147" cy="117.706" r="1.352"/>
	<circle fill="#433E43" cx="44.147" cy="117.429" r="1.352"/>
</g>
<g>
	<circle opacity="0.1" fill="#FFFFFF" enable-background="new    " cx="159.285" cy="117.706" r="1.352"/>
	<circle fill="#433E43" cx="159.285" cy="117.429" r="1.352"/>
</g>
<g>
	<circle opacity="0.1" fill="#FFFFFF" enable-background="new    " cx="59.425" cy="100.748" r="1.352"/>
	<circle fill="#433E43" cx="59.425" cy="100.472" r="1.352"/>
</g>
<g>
	<circle opacity="0.1" fill="#FFFFFF" enable-background="new    " cx="74.703" cy="100.748" r="1.352"/>
	<circle fill="#433E43" cx="74.703" cy="100.472" r="1.352"/>
</g>
<g>
	<circle opacity="0.1" fill="#FFFFFF" enable-background="new    " cx="89.981" cy="100.748" r="1.352"/>
	<circle fill="#433E43" cx="89.981" cy="100.472" r="1.352"/>
</g>
<g>
	<circle opacity="0.1" fill="#FFFFFF" enable-background="new    " cx="111.485" cy="100.748" r="1.352"/>
	<circle fill="#433E43" cx="111.485" cy="100.472" r="1.352"/>
</g>
<g>
	<circle opacity="0.1" fill="#FFFFFF" enable-background="new    " cx="126.763" cy="100.748" r="1.352"/>
	<circle fill="#433E43" cx="126.763" cy="100.472" r="1.352"/>
</g>
<g>
	<circle opacity="0.1" fill="#FFFFFF" enable-background="new    " cx="142.041" cy="100.748" r="1.352"/>
	<circle fill="#433E43" cx="142.041" cy="100.472" r="1.352"/>
</g>
<g>
	<circle opacity="0.1" fill="#FFFFFF" enable-background="new    " cx="157.319" cy="100.748" r="1.352"/>
	<circle fill="#433E43" cx="157.319" cy="100.472" r="1.352"/>
</g>
<g>
	<circle opacity="0.1" fill="#FFFFFF" enable-background="new    " cx="44.516" cy="136.015" r="1.352"/>
	<circle fill="#433E43" cx="44.516" cy="135.738" r="1.352"/>
</g>
<g>
	<circle opacity="0.1" fill="#FFFFFF" enable-background="new    " cx="60.912" cy="136.015" r="1.352"/>
	<circle fill="#433E43" cx="60.912" cy="135.738" r="1.352"/>
</g>
<g>
	<circle opacity="0.1" fill="#FFFFFF" enable-background="new    " cx="77.307" cy="136.015" r="1.352"/>
	<circle fill="#433E43" cx="77.307" cy="135.738" r="1.352"/>
</g>
<g>
	<circle opacity="0.1" fill="#FFFFFF" enable-background="new    " cx="110.098" cy="136.015" r="1.352"/>
	<circle fill="#433E43" cx="110.098" cy="135.738" r="1.352"/>
</g>
<g>
	<circle opacity="0.1" fill="#FFFFFF" enable-background="new    " cx="126.494" cy="136.015" r="1.352"/>
	<circle fill="#433E43" cx="126.494" cy="135.738" r="1.352"/>
</g>
<g>
	<circle opacity="0.1" fill="#FFFFFF" enable-background="new    " cx="142.889" cy="136.015" r="1.352"/>
	<circle fill="#433E43" cx="142.889" cy="135.738" r="1.352"/>
</g>
<g>
	<circle opacity="0.1" fill="#FFFFFF" enable-background="new    " cx="159.285" cy="136.015" r="1.352"/>
	<circle fill="#433E43" cx="159.285" cy="135.738" r="1.352"/>
</g>
<g>
	<circle opacity="0.1" fill="#FFFFFF" enable-background="new    " cx="93.703" cy="136.015" r="1.352"/>
	<circle fill="#433E43" cx="93.703" cy="135.738" r="1.352"/>
</g>
<rect x="41.48" y="73.93" fill="#473C35" width="121.125" height="0.369"/>
<rect x="41.48" y="74.299" opacity="0.2" fill="#DBD3C0" enable-background="new    " width="121.125" height="0.369"/>
<g>
	<rect x="41.601" y="86.402" fill="#473C35" width="120.99" height="0.369"/>
	<rect x="41.601" y="86.771" opacity="0.2" fill="#DBD3C0" enable-background="new    " width="120.99" height="0.369"/>
</g>
<g>
	<rect x="41.601" y="61.277" fill="#473C35" width="120.99" height="0.369"/>
	<rect x="41.601" y="61.646" opacity="0.2" fill="#DBD3C0" enable-background="new    " width="120.99" height="0.369"/>
</g>
<g>
	<rect x="41.601" y="50.319" fill="#473C35" width="120.99" height="0.369"/>
	<rect x="41.601" y="50.688" opacity="0.2" fill="#DBD3C0" enable-background="new    " width="120.99" height="0.369"/>
</g>
<rect x="48.787" y="117.921" fill="#473C35" width="105.861" height="0.369"/>
<rect x="48.817" y="118.289" opacity="0.2" fill="#DBD3C0" enable-background="new    " width="106.044" height="0.369"/>
<rect x="48.817" y="96.263" opacity="0.6" fill="#DBD3C0" enable-background="new    " width="106.044" height="0.369"/>
<rect x="48.817" y="131.468" opacity="0.6" fill="#DBD3C0" enable-background="new    " width="106.044" height="0.369"/>
<linearGradient id="SVGID_1_" gradientUnits="userSpaceOnUse" x1="512" y1="792.2017" x2="512" y2="592.6517" gradientTransform="matrix(1 0 0 1 -412 -591)">
	<stop  offset="0" style="stop-color:#000000;stop-opacity:0"/>
	<stop  offset="1" style="stop-color:#000000"/>
</linearGradient>
<polygon fill="url(#SVGID_1_)" points="200,200 0,200 40,128.333 40.125,140.361 163.458,140.361 163.458,128.958 "/>
<rect x="41.542" y="43.667" fill="#E1B224" width="4.405" height="52.631"/>
<rect x="41.679" y="43.78" fill="#E1B224" width="121.06" height="4.405"/>
<rect x="158.292" y="43.667" fill="#E1B224" width="4.405" height="52.631"/>
<linearGradient id="SVGID_2_" gradientUnits="userSpaceOnUse" x1="308" y1="-164" x2="308" y2="-191" gradientTransform="matrix(1 0 0 -1 -206 -95)">
	<stop  offset="0" style="stop-color:#000000;stop-opacity:0"/>
	<stop  offset="1" style="stop-color:#000000"/>
</linearGradient>
<rect x="46" y="69" fill="url(#SVGID_2_)" width="112" height="27"/>
<polygon opacity="0.5" enable-background="new    " points="101.928,48.991 103.574,70.024 108.489,49.507 106.823,70.539 
	114.888,51.044 109.953,71.556 120.968,53.562 112.884,73.05 126.579,57 115.546,74.984 131.583,61.274 117.873,77.31 
	135.856,66.278 119.807,79.972 139.295,71.889 121.301,82.904 141.813,77.969 122.318,86.033 143.349,84.368 122.832,89.283 
	143.866,90.928 122.832,92.574 143.349,97.489 122.318,95.823 141.813,103.888 121.301,98.953 139.295,109.968 119.807,101.884 
	135.856,115.579 117.873,104.546 131.583,120.583 115.546,106.873 126.579,124.856 112.884,108.807 120.968,128.295 
	109.953,110.301 114.888,130.813 106.823,111.318 108.489,132.349 103.574,111.832 101.928,132.866 100.283,111.832 95.368,132.349 
	97.033,111.318 88.969,130.813 93.904,110.301 82.889,128.295 90.972,108.807 77.278,124.856 88.31,106.873 72.274,120.583 
	85.984,104.546 68,115.579 84.05,101.884 64.562,109.968 82.556,98.953 62.044,103.888 81.539,95.823 60.507,97.489 81.024,92.574 
	59.991,90.928 81.024,89.283 60.507,84.368 81.539,86.033 62.044,77.969 82.556,82.904 64.562,71.889 84.05,79.972 68,66.278 
	85.984,77.31 72.274,61.274 88.31,74.984 77.278,57 90.972,73.05 82.889,53.562 93.904,71.556 88.969,51.044 97.033,70.539 
	95.368,49.507 100.283,70.024 "/>
<path fill="#FFD394" d="M133.394,117.591c0,0-0.63,3.361-5.865,7.215s-8.363,3.259-8.363,3.259s-14.409-25.197-20.04-32.847
	S74.507,67.396,74.507,67.396s4.414-1.594,8.038-4.262c3.624-2.668,6.189-6.212,6.189-6.212s10.978,21.099,18.883,31.837
	S133.394,117.591,133.394,117.591z"/>
<ellipse transform="matrix(0.8053 -0.5928 0.5928 0.8053 -20.7323 60.1771)" fill="#E2C093" cx="81.263" cy="61.657" rx="8.926" ry="3.117"/>
<path opacity="0.4" d="M75.913,67.267c0,0,2.67-7.864,12.358-9.252C84.078,65.603,75.913,67.267,75.913,67.267z"/>
<path fill="#FFFFFF" d="M114.086,82.139c-0.175-0.138-0.428-0.108-0.566,0.066c-0.138,0.174-0.109,0.428,0.066,0.565
	c0.709,0.562,1.447,1.94,1.456,3.275c0.006,0.969-0.361,1.76-1.089,2.353c-1.173,0.949-1.732,0.428-2.443-0.233
	c-0.254-0.235-0.53-0.478-0.837-0.632c0.002-0.004,0.003-0.007,0.005-0.011c0.917-1.965,1.175-3.466,0.768-4.463
	c-0.275-0.674-0.831-1.1-1.654-1.268c-1.178-0.241-2.049-0.026-2.591,0.64c-0.696,0.858-0.761,2.42-0.195,4.647
	c0.333,1.306,0.778,2.431,0.942,2.83c0,0-1.337,1.56-4.156,3.636c-2.819,2.075-4.943,3.063-4.943,3.063
	c-0.18,0.132-0.218,0.384-0.086,0.563c0.132,0.18,0.384,0.218,0.563,0.086c0,0,3.648-1.869,5.125-2.956s4.257-3.951,4.257-3.951
	l0.115-0.086c0.11,0.021,0.222,0.014,0.313-0.053c0.036-0.027,0.069-0.06,0.095-0.1c0.026-0.039,0.539-0.806,1.085-1.858
	c0.179,0.086,0.382,0.257,0.645,0.502c0.686,0.639,1.711,1.591,3.323,0.405c0.058-0.043,0.116-0.088,0.177-0.136
	c0.915-0.743,1.394-1.774,1.387-2.983C115.836,84.404,114.931,82.809,114.086,82.139z M107.826,82.936
	c0.059-0.073,0.125-0.137,0.199-0.191c0.354-0.261,0.883-0.316,1.604-0.167c0.55,0.113,0.9,0.369,1.07,0.784
	c0.394,0.964-0.173,2.623-0.862,4.051c-0.004,0.001-0.007-0.001-0.011,0.001c-0.763,0.19-1.196,0.81-1.443,1.393
	C107.727,87.003,106.928,84.041,107.826,82.936z"/>
</svg>
