<?xml version="1.0" encoding="utf-8"?>
<!-- Generator: Adobe Illustrator 17.0.0, SVG Export Plug-In . SVG Version: 6.00 Build 0)  -->
<!DOCTYPE svg PUBLIC "-//W3C//DTD SVG 1.1//EN" "http://www.w3.org/Graphics/SVG/1.1/DTD/svg11.dtd">
<svg version="1.1" id="Layer_1" xmlns="http://www.w3.org/2000/svg" xmlns:xlink="http://www.w3.org/1999/xlink" x="0px" y="0px"
	 width="800px" height="631px" viewBox="0 0 800 631" enable-background="new 0 0 800 631" xml:space="preserve">
<rect x="-2" fill="#3E6372" width="804" height="631"/>
<rect x="351.833" y="107" fill="#FFFFFF" width="115.333" height="228.667"/>
<polygon fill="#FFFFFF" points="466,340.5 228,454.5 172,384 351.5,340 "/>
<polygon fill="#3E6372" points="467.5,335.667 375.833,360.667 375.833,100.333 467.5,107 "/>
<g>
	<line fill="none" x1="131.781" y1="523.191" x2="131.781" y2="692.386"/>
	<path fill="#07405F" d="M131.781,715.917c-12.997,0-23.533-10.536-23.533-23.533V523.193c0-12.997,10.536-23.531,23.533-23.531
		s23.533,10.536,23.533,23.531v169.193C155.314,705.383,144.778,715.917,131.781,715.917z"/>
</g>
<g>
	<line fill="none" x1="189.498" y1="523.191" x2="189.498" y2="692.386"/>
	<path fill="#07405F" d="M189.498,715.917c-12.997,0-23.533-10.536-23.533-23.533V523.193c0-12.997,10.536-23.531,23.533-23.531
		s23.533,10.536,23.533,23.531v169.193C213.03,705.383,202.495,715.917,189.498,715.917z"/>
</g>
<g>
	<path fill="#07405F" d="M212.427,538.608c0,7.859-6.372,14.231-14.231,14.231h-75.901c-7.859,0-14.231-6.372-14.231-14.231v-7.116
		c0-7.859,6.372-14.231,14.231-14.231h75.901c7.859,0,14.231,6.372,14.231,14.231V538.608z"/>
</g>
<path fill="#073E5E" d="M215.32,721.639l-14.231,14.626l-30.439-4.349l0.84-23.028l31.774-0.198c0,0,3.36,0,6.82,0
	C216.31,708.693,215.32,721.639,215.32,721.639z"/>
<path fill="#FFFFFF" d="M201.83,724.653l13.465-5.832c0,0,0.373,0.553,0.408,1.742c0.035,1.188-0.26,1.816-0.26,1.816
	l-13.341,14.231L201.83,724.653z"/>
<path fill="#FFFFFF" d="M202.078,736.661h-31.427c0,0-1.259-3.015-1.273-5.757c-0.013-2.742,1.273-6.3,1.273-6.3h31.229
	L202.078,736.661z"/>
<path fill="#073E5E" d="M156.815,720.453l-14.231,14.626l-30.439-4.349l0.84-23.028l31.774-0.198c0,0,3.36,0,6.82,0
	C157.803,707.506,156.815,720.453,156.815,720.453z"/>
<path fill="#FFFFFF" d="M143.324,723.468l13.465-5.832c0,0,0.373,0.553,0.408,1.742s-0.26,1.816-0.26,1.816l-13.342,14.231
	L143.324,723.468z"/>
<path fill="#FFFFFF" d="M143.572,735.476h-31.427c0,0-1.259-3.015-1.273-5.757c-0.013-2.742,1.273-6.3,1.273-6.3h31.229
	L143.572,735.476z"/>
<path fill="none" stroke="#FCF3E0" stroke-width="14.1732" stroke-linecap="round" stroke-miterlimit="10" d="M102.12,397.085
	c0,0-11.068,48.229,7.906,89.341"/>
<path fill="none" stroke="#FCF3E0" stroke-width="14.1732" stroke-linecap="round" stroke-miterlimit="10" d="M218.578,397.085
	c0,0,5.58,39.531-0.743,95.666"/>
<rect x="148.513" y="311.896" fill="#FCF3E0" width="26.683" height="34.392"/>
<path fill="#EB573E" d="M214.925,526.749H105.818l-4.744-175.717l22.928-12.452l21.347-3.163c0,0,3.943,3.558,16.603,3.163
	c12.66-0.396,16.603-3.953,16.603-3.953l17.394,4.744l24.313,12.254L214.925,526.749z"/>
<rect x="88.425" y="350.834" fill="#EB573E" width="28.462" height="46.646"/>
<rect x="202.868" y="350.834" fill="#EB573E" width="28.462" height="46.646"/>
<path fill="#07405F" d="M216.111,262.383c0,29.965-23.403,60.779-53.368,60.779s-55.147-30.814-55.147-60.779
	s24.291-54.257,54.257-54.257S216.111,232.418,216.111,262.383z"/>
<path fill="#07405F" d="M179.49,215.265c-0.192-1.481-0.195-2.842,0.08-3.958c1.619-6.548,2.281-8.499,2.281-8.499
	s-4.831,4.506-6.946,4.376c-2.116-0.13-5.371-12.207-8.068-14.789c1.048,7.724-0.275,11.626-1.466,13.588
	c-1.189,1.962-3.65-5.907-3.65-5.907s-0.356,7.931-2.277,8.676c-0.526,0.203-1.931-0.113-3.836-0.69
	C163.755,212.575,172.332,214.529,179.49,215.265z"/>
<path fill="#07405F" d="M145.746,319.605l3.953,13.44c0,0-0.395-9.883,5.535-9.487c5.93,0.395,5.535,11.859,5.535,11.859
	l8.697-13.836"/>
<path fill="#07405F" d="M148.513,324.349c0,0-26.881-17.394-26.881-20.161s0,8.302,0,8.302s-11.364-26.881-12.55-35.578
	c-1.186-8.697,46.943-8.697,46.943-8.697l53.762,12.65l4.251-2.769l-3.558,10.969l-10.575,22.632l0.791-12.649
	c0,0-7.116,14.231-15.417,17.789"/>
<path fill="#9F382B" d="M98.11,359.926l-0.593,27.869l9.487,4.744l13.045,101.398l10.08,2.372l-14.231,3.558l-3.558,11.859
	l7.709,3.558l-10.673,4.744l9.487,7.116h86.574l2.372-7.116l-13.045-2.372l13.045-2.965l-7.709-8.301l1.186-6.523l1.186-13.045
	l-8.302-3.558l12.452-16.01l3.558-80.051l8.302-1.779v-23.72l-43.879-18.382c0,0-9.487,2.965-26.09-0.593
	C131.909,339.173,98.11,359.926,98.11,359.926z"/>
<path fill="#052938" d="M158.001,212.87l-34.392,13.44l8.302-0.791c0,0-11.859,7.511-13.836,32.02s-0.395,39.928-0.395,39.928
	l5.93-12.254c0,0,20.953,25.3,21.347,30.834c0.395,5.535,3.953-4.349,3.953-4.349l8.302,9.092l1.186-8.301
	c0,0,15.417,3.163,26.09-11.464c10.673-14.626,12.65,0.791,12.65,0.791l1.186-22.928c0,0,7.906-35.184-1.977-47.043
	c-9.883-11.859-23.323-16.208-23.323-16.208l-0.396-6.325l-6.325,3.558l-0.395-7.511l-2.372,7.116l-5.535-2.769L158.001,212.87
	L158.001,212.87z"/>
<path fill="#052938" d="M138.898,695.153c0,6.986-5.664,12.65-12.65,12.65l0,0c-6.986,0-12.65-5.664-12.65-12.65V541.771
	c0-6.986,5.664-12.65,12.65-12.65l0,0c6.986,0,12.65,5.664,12.65,12.65V695.153z"/>
<path fill="#052938" d="M193.451,695.153c0,6.986-5.664,12.65-12.65,12.65l0,0c-6.986,0-12.65-5.664-12.65-12.65V541.771
	c0-6.986,5.664-12.65,12.65-12.65l0,0c6.986,0,12.65,5.664,12.65,12.65V695.153z"/>
<polygon fill="#052938" points="193.055,549.381 114.288,549.479 109.249,526.651 205.212,527.144 "/>
<g>
	<path fill="#EB573E" d="M624.149,500.6c0,6.072,4.923,10.995,10.995,10.995h58.64c6.072,0,10.995-4.923,10.995-10.995v-5.498
		c0-6.072-4.923-10.995-10.995-10.995h-58.64c-6.072,0-10.995,4.923-10.995,10.995V500.6z"/>
</g>
<path fill="#EB573E" d="M625.959,678.053c2.673,0,5.269,0,5.269,0l24.548,0.153l0.649,17.791l-23.517,3.36l-10.995-11.3
	C621.911,688.057,621.147,678.055,625.959,678.053z"/>
<path fill="#FFFFFF" d="M632.124,699.625l-10.307-10.995c0,0-0.228-0.485-0.201-1.402c0.027-0.919,0.315-1.346,0.315-1.346
	l10.404,4.506L632.124,699.625z"/>
<path fill="#FFFFFF" d="M632.296,690.349h24.128c0,0,0.993,2.748,0.983,4.867s-0.983,4.448-0.983,4.448h-24.28L632.296,690.349z"/>
<path fill="#EB573E" d="M671.161,677.138c2.673,0,5.269,0,5.269,0l24.548,0.153l0.649,17.791l-23.517,3.36l-10.995-11.3
	C667.113,687.141,666.348,677.138,671.161,677.138z"/>
<path fill="#FFFFFF" d="M677.326,698.708l-10.307-10.995c0,0-0.228-0.485-0.201-1.402c0.027-0.919,0.315-1.346,0.315-1.346
	l10.404,4.505L677.326,698.708z"/>
<path fill="#FFFFFF" d="M677.497,689.432h24.128c0,0,0.993,2.748,0.983,4.867s-0.983,4.448-0.983,4.448h-24.28L677.497,689.432z"/>
<path fill="none" stroke="#FCF3E0" stroke-width="14.1732" stroke-linecap="round" stroke-miterlimit="10" d="M614.527,365.643
	c0,0,7.09,76.536,0.183,126.038"/>
<path fill="none" stroke="#FCF3E0" stroke-width="14.1732" stroke-linecap="round" stroke-miterlimit="10" d="M700.873,367.37
	c0,0,7.487,74.156-8.025,111.649"/>
<path fill="#9F382B" d="M669.004,333.68c0,0,19.283-4.893,29.931-38.852l-29.643-6.044L669.004,333.68z"/>
<rect x="646.712" y="311.551" fill="#FCF3E0" width="21.815" height="31.364"/>
<polyline fill="#FCF3E0" points="608.883,279.861 603.51,289.071 611.76,293.867 "/>
<path fill="#EB573E" d="M703.459,273.961c0-26.328-21.344-47.67-47.67-47.67c-26.328,0-47.67,21.342-47.67,47.67
	c0,4.464,0.626,8.778,1.773,12.876c-1.942,12.67-9.575,24.193-21.35,30.696c0.414,0.241,0.84,0.463,1.264,0.686
	c-0.19-0.005-0.395,0-0.581-0.006c12.1,12.049,28.784,19.498,47.209,19.498c29.351,0,54.266-18.907,63.283-45.2
	C702.126,286.808,703.459,280.54,703.459,273.961z"/>
<g>
	<line fill="none" x1="686.454" y1="489.842" x2="686.454" y2="665.457"/>
	<path fill="#EB573E" d="M686.454,683.636c10.041,0,18.181-8.141,18.181-18.181V489.842c0-10.041-8.141-18.181-18.181-18.181
		s-18.181,8.141-18.181,18.181v175.615C668.273,675.498,676.412,683.636,686.454,683.636z"/>
</g>
<g>
	<line fill="none" x1="641.863" y1="489.842" x2="641.863" y2="665.457"/>
	<path fill="#EB573E" d="M641.863,683.636c10.041,0,18.181-8.141,18.181-18.181V489.842c0-10.041-8.141-18.181-18.181-18.181
		s-18.181,8.141-18.181,18.181v175.615C623.682,675.498,631.82,683.636,641.863,683.636z"/>
</g>
<path fill="#9F382B" d="M680.956,667.595c0,5.397,4.375,9.774,9.774,9.774l0,0c5.397,0,9.774-4.375,9.774-9.774v-163.4
	c0-5.397-4.375-9.774-9.774-9.774l0,0c-5.397,0-9.774,4.375-9.774,9.774V667.595z"/>
<path fill="#9F382B" d="M638.808,667.595c0,5.397,4.375,9.774,9.774,9.774l0,0c5.397,0,9.774-4.375,9.774-9.774v-163.4
	c0-5.397-4.375-9.774-9.774-9.774l0,0c-5.397,0-9.774,4.375-9.774,9.774V667.595z"/>
<polygon fill="#9F382B" points="639.113,508.924 699.967,509 703.863,491.363 629.723,491.744 "/>
<path fill="#07405F" d="M623.317,492.182l81.116-0.535l2.872-146.147l-18.743-10.034l-17.45-2.549c0,0-3.224,2.867-13.573,2.549
	c-10.349-0.32-13.573-3.185-13.573-3.185l-14.22,3.821l-19.874,9.875L623.317,492.182z"/>
<rect x="689.257" y="344.76" fill="#07405F" width="22.86" height="19.633"/>
<rect x="602.917" y="345.335" fill="#07405F" width="22.86" height="19.633"/>
<path fill="#052938" d="M706.969,356.287l-1.752,26.426l-7.374,4.257l-13.753,77.383l-6.451,1.545l8.857,2.3l1.76,7.504
	l-4.885,2.204l6.374,2.906l-6.036,4.289h-52.431l-1.724-4.289l7.906-1.449l-8.124-1.823l4.456-5.185l-0.98-4.159l-1.255-8.547
	l5.201-2.387l-8.735-11.048L625.766,344.9l21.055-5.614c0,0,7.662,3.108,21.007-0.626
	C681.343,334.883,706.969,356.287,706.969,356.287z"/>
<path fill="#9F382B" d="M699.113,258.279c-6.637-18.358-26.898-27.859-45.256-21.222s-27.859,26.898-21.222,45.256
	c1.126,3.113,2.65,5.962,4.483,8.531c1.839,9.324-0.578,19.283-7.149,26.784c0.35,0.063,0.702,0.111,1.054,0.161
	c-0.133,0.045-0.276,0.1-0.406,0.141c11.475,5.35,24.985,6.34,37.832,1.695c20.465-7.398,33.071-26.861,32.732-47.468
	C701.421,267.573,700.772,262.867,699.113,258.279z"/>
<ellipse fill="#FFFFFF" cx="391.667" cy="219.667" rx="4.833" ry="7"/>
<circle fill="#FFFFFF" cx="200.342" cy="184.158" r="9.842"/>
<circle fill="#FFFFFF" cx="219.648" cy="153.496" r="16.277"/>
<circle fill="#FFFFFF" cx="248.533" cy="76.915" r="50.462"/>
<polygon fill="#EB573E" points="218.833,63.399 222.478,70.783 230.627,71.968 224.73,77.716 226.122,85.832 218.833,82 
	211.544,85.832 212.936,77.716 207.04,71.968 215.189,70.783 "/>
<polygon fill="#EB573E" points="247.833,63.399 251.478,70.783 259.627,71.968 253.73,77.716 255.122,85.832 247.833,82 
	240.544,85.832 241.936,77.716 236.04,71.968 244.189,70.783 "/>
<polygon fill="#EB573E" points="276.833,63.399 280.478,70.783 288.627,71.968 282.73,77.716 284.122,85.832 276.833,82 
	269.544,85.832 270.936,77.716 265.04,71.968 273.189,70.783 "/>
<circle fill="#FFFFFF" cx="604.05" cy="227.491" r="9.842"/>
<circle fill="#FFFFFF" cx="584.745" cy="196.83" r="16.277"/>
<circle fill="#FFFFFF" cx="555.859" cy="120.248" r="50.462"/>
<polygon fill="#EB573E" points="585.559,106.732 581.914,114.117 573.765,115.301 579.662,121.049 578.27,129.165 585.559,125.333 
	592.848,129.165 591.456,121.049 597.353,115.301 589.203,114.117 "/>
<polygon fill="#EB573E" points="556.559,106.732 552.914,114.117 544.765,115.301 550.662,121.049 549.27,129.165 556.559,125.333 
	563.848,129.165 562.456,121.049 568.353,115.301 560.203,114.117 "/>
<polygon fill="#EB573E" points="527.559,106.732 523.914,114.117 515.765,115.301 521.662,121.049 520.27,129.165 527.559,125.333 
	534.848,129.165 533.456,121.049 539.353,115.301 531.203,114.117 "/>
<g>
	<path fill="#82CAC4" d="M403.125,48.419c28.373,0,51.456,23.083,51.456,51.456s-23.083,51.456-51.456,51.456
		s-51.456-23.083-51.456-51.456S374.752,48.419,403.125,48.419 M403.125,42.75C371.576,42.75,346,68.326,346,99.875
		S371.576,157,403.125,157s57.125-25.576,57.125-57.125S434.674,42.75,403.125,42.75L403.125,42.75z"/>
</g>
<polyline fill="none" stroke="#82CAC4" stroke-width="5.6693" stroke-linecap="round" stroke-miterlimit="10" points="382,103 
	397.5,118.5 432,84 "/>
</svg>
