<?xml version="1.0" encoding="utf-8"?>
<!-- Generator: Adobe Illustrator 17.0.0, SVG Export Plug-In . SVG Version: 6.00 Build 0)  -->
<!DOCTYPE svg PUBLIC "-//W3C//DTD SVG 1.1//EN" "http://www.w3.org/Graphics/SVG/1.1/DTD/svg11.dtd">
<svg version="1.1" id="Layer_1" xmlns="http://www.w3.org/2000/svg" xmlns:xlink="http://www.w3.org/1999/xlink" x="0px" y="0px"
	 width="800px" height="631px" viewBox="0 0 800 631" enable-background="new 0 0 800 631" xml:space="preserve">
<rect x="-2" fill="#3E6372" width="804" height="631"/>
<rect x="387.592" fill="#3E6372" width="13.499" height="631"/>
<linearGradient id="SVGID_1_" gradientUnits="userSpaceOnUse" x1="608.5" y1="20.5" x2="1006" y2="20.5" gradientTransform="matrix(1 0 0 -1 -206 336)">
	<stop  offset="0" style="stop-color:#000000;stop-opacity:0.3"/>
	<stop  offset="1" style="stop-color:#000000;stop-opacity:0"/>
</linearGradient>
<polygon fill="url(#SVGID_1_)" points="800,631 402.5,631 402.5,0 800,476 "/>
<polygon fill="#083F5E" points="66.474,525.268 73.254,525.542 73.254,715.392 22.594,715.392 28.112,512.681 "/>
<path fill="#FEF3DF" d="M190.237,304.979c0,0-12.618,18.749-12.783,23.035c-0.165,4.286,3.739,16.124,3.739,16.124
	s-24.869,9.326-39.118,36.144c-16.819-4.252-39.635-9.388-39.635-9.388s-12.412,21.414-14.181,28.775s-25.132-8.46-25.642-10.66
	c-0.51-2.199,5.563-11.716,6.638-25.868C70.33,348.99,117.486,267.794,190.237,304.979z"/>
<path fill="#F7C3AD" d="M69.255,363.141c1.074-14.151,48.231-95.348,120.982-58.162c0,0-4.113,6.112-7.674,12.155
	c-5.35,2.4-38.389,17.527-38.9,25.275c-0.555,8.431-0.839-6.949-0.839-6.949s-26.024,14.337-26.55,23.727
	c-1.102-2.255,1.148-8.376,1.148-8.376l-9.412,19.367c0,0,2.287-24.279-8.866-25.748s-22.901,7.82-22.644,24.752
	c-2.515-5.016-4.854-4.281-4.854-4.281s-2.201,7.676-5.331,12.801C67.6,373.699,68.826,368.791,69.255,363.141z"/>
<path fill="#EB583F" d="M22.594,450.056v-6.019H24.6c0,0-0.501,1.253-1.003-4.514c-0.502-5.768,10.533-42.885,10.533-42.885
	l28.59-10.533l34.358,15.549l-2.257,13.793l-9.279,36.114h-2.759l-9.53,73.982l-37.117-1.505l1.756-70.471l-14.295-3.762"/>
<ellipse transform="matrix(-0.2938 0.9559 -0.9559 -0.2938 533.9719 258.618)" fill="#083F5E" cx="171.451" cy="326.562" rx="6.27" ry="2.257"/>
<g>
	<path fill="#FEF3DF" d="M42.714,581.785c0.882,0,1.777-0.135,2.661-0.421c4.547-1.468,7.043-6.345,5.574-10.893
		C29.8,504.977,42.452,454.918,42.583,454.42c1.209-4.623-1.558-9.351-6.181-10.56c-4.627-1.207-9.351,1.559-10.56,6.181
		c-0.584,2.233-14.045,55.495,8.641,125.749C35.666,579.453,39.062,581.785,42.714,581.785z"/>
</g>
<path fill="#F7C3AD" d="M25.841,450.041c1.209-4.622,5.934-7.388,10.56-6.181c0.732,0.192,1.411,0.48,2.041,0.833
	c-1.975,1.109-3.517,2.983-4.136,5.348c-0.584,2.233-14.045,55.495,8.641,125.749c0.698,2.162,2.17,3.855,4.008,4.884
	c-0.495,0.277-1.022,0.51-1.581,0.691c-0.884,0.286-1.78,0.421-2.661,0.421c-3.652,0-7.048-2.332-8.231-5.995
	C11.796,505.536,25.257,452.274,25.841,450.041z"/>
<path fill="#083F5E" d="M65.207,371.031c0,0,5.779-15.049-11.235-25.971c-17.014-10.923-23.291-28.003-25.046-48.063
	s-4.605-47.396-4.605-47.396l3.701,4.355c0,0,4.268-17.401,0.864-23.756c-3.405-6.355-4.605-8.2-4.605-8.2s6.192,3.392,8.349,2.698
	c2.156-0.693,2.34-14.058,4.451-17.444c0.953,8.275,3.353,11.966,5.103,13.684c1.749,1.718,2.22-7.08,2.22-7.08
	s2.462,8.118,4.648,8.384c2.185,0.265,14.398-9.517,22.67-12.98c50.339-19.395,71.646-14.102,71.646-14.102
	s36.085,34.884,54.224,83.969c1.941,9.204,13.383,17.75,13.383,17.75s-18.198,2.289-17.654,10.465
	c-2.979-4.522-7.093-1.445-7.093-1.445s-39.077,17.17-39.632,25.601c-0.555,8.431-0.839-6.949-0.839-6.949
	s-26.024,14.337-26.55,23.727c-1.102-2.255,1.148-8.376,1.148-8.376l-9.412,19.367c0,0,2.287-24.279-8.866-25.748
	s-22.901,7.82-22.644,24.752c-2.515-5.016-4.854-4.281-4.854-4.281S70.308,368.883,65.207,371.031z"/>
<polygon fill="#083F5E" points="751.249,531.853 757.918,532.123 757.918,718.868 723.116,718.868 713.514,519.472 "/>
<path fill="#FEF3DF" d="M667.078,296.66l-14.801,18.872c0,0,22.924,38.107,20.334,52.908s-6.643,17.768-6.643,17.768
	s19.242,14.061,20.352,23.682s16.73-2.375,20.391,2.143s9.952,24.5,9.952,24.5l17.021-7.401L727.023,411l12.211-119.151
	L667.078,296.66z"/>
<path fill="#F7C3AD" d="M667.078,296.66l72.156-4.81L727.023,411l5.134,13.977c-5.017,2.98-10.404,6.12-16.184,9.425
	c-1.053-3.206-3.171-9.458-5.331-14.681c26.488-67.361-30.46-97.756-35.547-100.312c1.475,0.827,7.214,5.092,11.48,23.011
	c-9.687-13.319-21.594-17.161-29.357-18.145c-2.849-5.263-4.943-8.744-4.943-8.744L667.078,296.66z"/>
<path fill="#EB583F" d="M733.684,429.132l22.572,10.485v151.306l-42.742-3.476l-5.116-94.545c0,0-13.938-11.348-12.643-17.269
	s7.216-16.034,7.216-28.739c0.356-3.959,8.881-10.361,8.881-10.361L733.684,429.132z"/>
<ellipse transform="matrix(0.219 0.9757 -0.9757 0.219 882.2122 -377.3777)" fill="#083F5E" cx="676.842" cy="362.4" rx="6.167" ry="2.22"/>
<path fill="#EB583F" d="M646.232,313.805c0,0,21.709-3.453,37.497,18.255c-4.934-20.722-11.841-23.189-11.841-23.189
	s78.446,37.003,23.188,125.318c103.676-57.356,102.704-71.504,102.704-71.504s12.141-71.081-20.366-97.231
	c-24.243-17.268-16.812-20.229-16.812-20.229l-6.567,0.987c0,0,3.454-3.454-1.85-8.758c0.74,8.141-5.057,8.758-5.057,8.758
	S662.39,253.243,646.232,313.805z"/>
<g>
	<path fill="#FEF3DF" d="M736.901,600.098c-0.867,0-1.748-0.133-2.618-0.414c-4.472-1.444-6.928-6.241-5.483-10.714
		c20.803-64.423,8.358-113.664,8.23-114.154c-1.19-4.547,1.533-9.198,6.08-10.388c4.551-1.187,9.198,1.534,10.388,6.08
		c0.575,2.196,13.816,54.588-8.5,123.692C743.834,597.804,740.494,600.098,736.901,600.098z"/>
</g>
<path fill="#F7C3AD" d="M753.498,470.508c-1.19-4.547-5.837-7.268-10.388-6.08c-0.72,0.189-1.388,0.472-2.008,0.82
	c1.943,1.091,3.46,2.934,4.068,5.261c0.575,2.196,13.816,54.588-8.5,123.692c-0.687,2.127-2.135,3.792-3.942,4.804
	c0.486,0.273,1.005,0.502,1.555,0.679c0.87,0.281,1.75,0.414,2.618,0.414c3.593,0,6.933-2.294,8.097-5.897
	C767.313,525.096,754.072,472.704,753.498,470.508z"/>
<rect x="341.808" y="41" fill="#3E6372" stroke="#2A3A48" stroke-miterlimit="10" width="108.451" height="46.583"/>
<path fill="#2A3A48" d="M366.834,80.541c0,2.739-2.22,4.959-4.959,4.959h-12.374c-2.739,0-4.959-2.22-4.959-4.959V48.793
	c0-2.739,2.22-4.959,4.959-4.959h12.374c2.739,0,4.959,2.22,4.959,4.959V80.541z"/>
<path fill="#2A3A48" d="M389.834,80.541c0,2.739-2.22,4.959-4.959,4.959h-12.374c-2.739,0-4.959-2.22-4.959-4.959V48.793
	c0-2.739,2.22-4.959,4.959-4.959h12.374c2.739,0,4.959,2.22,4.959,4.959V80.541z"/>
<path fill="#2A3A48" d="M423.834,80.541c0,2.739-2.22,4.959-4.959,4.959h-12.374c-2.739,0-4.959-2.22-4.959-4.959V48.793
	c0-2.739,2.22-4.959,4.959-4.959h12.374c2.739,0,4.959,2.22,4.959,4.959V80.541z"/>
<path fill="#2A3A48" d="M446.959,80.541c0,2.739-2.22,4.959-4.959,4.959h-12.374c-2.739,0-4.959-2.22-4.959-4.959V48.793
	c0-2.739,2.22-4.959,4.959-4.959H442c2.739,0,4.959,2.22,4.959,4.959V80.541z"/>
<path fill="#FEF3DF" d="M363.98,73.929c0,2.209-0.778,4.082-2.333,5.619s-3.418,2.306-5.592,2.306c-2.208,0-4.085-0.773-5.631-2.319
	c-1.546-1.546-2.319-3.415-2.319-5.605V55.802c0-2.208,0.777-4.085,2.332-5.631s3.427-2.319,5.618-2.319
	c2.208,0,4.082,0.778,5.619,2.332c1.537,1.555,2.306,3.428,2.306,5.618L363.98,73.929L363.98,73.929z M358.786,55.696
	c0-0.795-0.283-1.475-0.848-2.041c-0.566-0.565-1.246-0.848-2.041-0.848c-0.795,0-1.471,0.283-2.027,0.848
	c-0.557,0.566-0.835,1.246-0.835,2.041V73.85c0,0.795,0.278,1.475,0.835,2.041c0.556,0.565,1.232,0.848,2.027,0.848
	s1.475-0.283,2.041-0.848c0.565-0.565,0.848-1.246,0.848-2.041V55.696z"/>
<path fill="#FEF3DF" d="M386.905,73.929c0,2.209-0.778,4.082-2.333,5.619s-3.418,2.306-5.592,2.306
	c-2.208,0-4.085-0.773-5.631-2.319c-1.546-1.546-2.319-3.415-2.319-5.605V55.802c0-2.208,0.777-4.085,2.332-5.631
	s3.427-2.319,5.618-2.319c2.208,0,4.082,0.778,5.619,2.332c1.537,1.555,2.306,3.428,2.306,5.618L386.905,73.929L386.905,73.929z
	 M381.711,55.696c0-0.795-0.283-1.475-0.848-2.041c-0.566-0.565-1.246-0.848-2.041-0.848c-0.795,0-1.471,0.283-2.027,0.848
	c-0.557,0.566-0.835,1.246-0.835,2.041V73.85c0,0.795,0.278,1.475,0.835,2.041c0.556,0.565,1.232,0.848,2.027,0.848
	s1.475-0.283,2.041-0.848c0.565-0.565,0.848-1.246,0.848-2.041V55.696z"/>
<path fill="#FEF3DF" d="M393.831,56.178h5.009v5.035h-5.009V56.178z M393.831,70.276h5.009v4.982h-5.009V70.276z"/>
<path fill="#FEF3DF" d="M411.56,81.509V55.935h-4.267v-3.499c1.201-0.141,2.345-0.596,3.432-1.365s1.868-1.7,2.346-2.796h3.498
	v33.233h-5.009V81.509z"/>
<path fill="#FEF3DF" d="M433.052,53.285v7.129c0.496-0.707,1.195-1.254,2.099-1.643c0.479-0.194,1.036-0.292,1.674-0.292
	c2.196,0,3.818,0.769,4.863,2.306c0.903,1.325,1.355,3.198,1.355,5.618v7.156c0,2.456-0.778,4.47-2.333,6.042
	c-1.483,1.52-3.356,2.279-5.618,2.279c-2.19,0-4.011-0.795-5.459-2.385c-1.396-1.519-2.094-3.375-2.094-5.565v-0.795l4.797-0.371
	l0.106,1.14c0.123,1.325,0.662,2.209,1.616,2.65c0.282,0.142,0.583,0.212,0.901,0.212c2.049,0,3.074-1.069,3.074-3.207v-8.136
	c0-0.971-0.355-1.775-1.066-2.412c-0.337-0.3-0.809-0.451-1.412-0.451c-0.888,0-1.545,0.345-1.972,1.034
	c-0.354,0.601-0.532,1.237-0.532,1.908v0.901h-5.009V48.25h14.655v5.035H433.052z"/>
<rect x="344.25" y="64.5" fill="#3E6372" width="22.5" height="0.375"/>
<rect x="367.375" y="64.5" fill="#3E6372" width="22.5" height="0.375"/>
<rect x="401.5" y="64.5" fill="#3E6372" width="22.5" height="0.375"/>
<rect x="424.5" y="64.5" fill="#3E6372" width="22.5" height="0.375"/>
<text transform="matrix(1 0 0 1 126.8333 133.2125)" fill="#FEF3DF" font-family="'BebasNeue'" font-size="40.5291">2 VÁLASZ</text>
<text transform="matrix(1 0 0 1 595.8334 133.2125)" fill="#FEF3DF" font-family="'BebasNeue'" font-size="40.5291">2 VÁLASZ</text>
</svg>
