<?xml version="1.0" encoding="utf-8"?>
<!-- Generator: Adobe Illustrator 17.0.0, SVG Export Plug-In . SVG Version: 6.00 Build 0)  -->
<!DOCTYPE svg PUBLIC "-//W3C//DTD SVG 1.1//EN" "http://www.w3.org/Graphics/SVG/1.1/DTD/svg11.dtd">
<svg version="1.1" id="Layer_1" xmlns="http://www.w3.org/2000/svg" xmlns:xlink="http://www.w3.org/1999/xlink" x="0px" y="0px"
	 width="800px" height="631px" viewBox="0 0 800 631" enable-background="new 0 0 800 631" xml:space="preserve">
<rect x="-2" fill="#342E3F" width="804" height="631"/>
<polygon points="372.522,271.889 203.126,353.429 119.478,163.111 281.874,83.571 "/>
<polygon points="521.454,401.894 355.449,313.653 459.303,133.563 619.551,217.347 "/>
<polygon points="485.973,256.127 297.981,257.875 303.223,50.052 484.029,47.136 "/>
<rect x="311.182" y="46" fill="#4A3F60" width="178.818" height="201"/>
<path fill="#FEF3DF" d="M494.252,251.252H306.93V41.748h187.322V251.252z M315.434,242.748h170.314V50.252H315.434V242.748z"/>
<path fill="#82CAC4" d="M443.762,194.506c0.008-0.168,0.025-0.334,0.025-0.504v-56.939h23.429l-64.982-64.982l-64.982,64.982h22.879
	v56.939c0,0.17,0.017,0.336,0.025,0.504h-45.84c17.429,29.336,49.429,49,86.027,49s68.599-19.664,86.027-49H443.762z"/>
<rect x="427.211" y="144" fill="#FFFFFF" width="10.882" height="10.882"/>
<rect x="414.116" y="144" fill="#FFFFFF" width="10.882" height="10.882"/>
<rect x="414.116" y="157.095" fill="#FFFFFF" width="10.882" height="10.882"/>
<rect x="427.026" y="157.095" fill="#FFFFFF" width="10.882" height="10.882"/>
<g>
	<rect x="312.333" y="194.333" fill="#FEF3DF" width="175.333" height="53.333"/>
</g>
<g>
	
		<rect x="155.894" y="103.852" transform="matrix(0.907 -0.4211 0.4211 0.907 -63.2437 122.3024)" fill="#4A3F60" width="178.818" height="201"/>
	<path fill="#FEF3DF" d="M374.367,259.921l-169.903,78.883l-88.224-190.022l169.903-78.883L374.367,259.921z M208.596,327.51
		l154.477-71.721L282.01,81.193l-154.477,71.721L208.596,327.51z"/>
	<path fill="#82CAC4" d="M304.676,229.714c-0.063-0.156-0.118-0.314-0.189-0.468l-23.978-51.644l21.25-9.866l-86.304-31.575
		l-31.575,86.305l20.752-9.635l23.978,51.644c0.072,0.154,0.157,0.298,0.235,0.447l-41.577,19.304
		c28.162,19.268,65.467,23.628,98.662,8.216s53.939-46.723,57.393-80.67L304.676,229.714z"/>
	
		<rect x="270.18" y="188.077" transform="matrix(0.907 -0.4211 0.4211 0.907 -55.8622 134.0622)" fill="#FFFFFF" width="10.882" height="10.882"/>
	
		<rect x="258.303" y="193.591" transform="matrix(0.907 -0.4211 0.4211 0.907 -59.2888 129.5734)" fill="#FFFFFF" width="10.882" height="10.882"/>
	
		<rect x="263.818" y="205.469" transform="matrix(0.907 -0.4211 0.4211 0.907 -63.7776 133)" fill="#FFFFFF" width="10.882" height="10.882"/>
	
		<rect x="275.527" y="200.032" transform="matrix(0.907 -0.4211 0.4211 0.907 -60.3992 137.4255)" fill="#FFFFFF" width="10.882" height="10.882"/>
	<g>
		
			<rect x="188.473" y="245.506" transform="matrix(0.907 -0.4211 0.4211 0.907 -88.9363 141.5948)" fill="#FEF3DF" width="175.333" height="53.333"/>
	</g>
</g>
<g>
	
		<rect x="397.894" y="155.852" transform="matrix(0.8744 0.4852 -0.4852 0.8744 185.5848 -204.2421)" fill="#4A3F60" width="178.819" height="201"/>
	<path fill="#FEF3DF" d="M518.376,393.392L354.58,302.503l101.651-183.191l163.796,90.889L518.376,393.392z M366.142,299.193
		l148.924,82.636l93.399-168.319l-148.924-82.636L366.142,299.193z"/>
	<path fill="#82CAC4" d="M501.76,319.275c0.089-0.143,0.184-0.28,0.267-0.429l27.627-49.788l20.486,11.368l-25.292-88.35
		l-88.35,25.291l20.006,11.101l-27.627,49.788c-0.083,0.149-0.148,0.302-0.222,0.453l-40.082-22.241
		c1.006,34.108,19.446,66.829,51.448,84.586s69.524,16.089,98.997-1.105L501.76,319.275z"/>
	
		<rect x="508.47" y="269.038" transform="matrix(0.8744 0.4852 -0.4852 0.8744 197.722 -214.8752)" fill="#FFFFFF" width="10.882" height="10.882"/>
	
		<rect x="497.02" y="262.685" transform="matrix(0.8744 0.4852 -0.4852 0.8744 193.2012 -210.1176)" fill="#FFFFFF" width="10.882" height="10.882"/>
	
		<rect x="490.666" y="274.135" transform="matrix(0.8744 0.4852 -0.4852 0.8744 197.9587 -205.5967)" fill="#FFFFFF" width="10.882" height="10.882"/>
	
		<rect x="501.955" y="280.399" transform="matrix(0.8744 0.4852 -0.4852 0.8744 202.4159 -210.2873)" fill="#FFFFFF" width="10.882" height="10.882"/>
	<g>
		
			<rect x="362.973" y="294.542" transform="matrix(0.8744 0.4852 -0.4852 0.8744 212.4482 -178.3071)" fill="#FEF3DF" width="175.334" height="53.333"/>
	</g>
</g>
<text transform="matrix(1 0 0 1 649.6493 111.0252)" fill="#FEF3DF" font-family="'Bebas'" font-size="100.2165">?</text>
<g>
	<text transform="matrix(1 0 0 1 72.1782 111.0252)" fill="#EB583F" font-family="'Bebas'" font-size="100.2165">!</text>
</g>
<path opacity="0.3" fill="#231F20" d="M361.478,326.57c-0.448-0.569-0.941-1.078-1.455-1.558
	c-4.965-5.416-13.335-6.177-19.199-1.556L159.738,466.092C155.649,463.191,152,461,152,461l-0.924-0.046l1.123-0.115
	c0,0-0.241-1.148-0.611-3.022c-0.047-0.236-0.096-0.486-0.146-0.745c-0.014-0.074-0.029-0.15-0.044-0.226
	c-0.044-0.227-0.09-0.462-0.137-0.704c-0.024-0.125-0.049-0.255-0.074-0.384c-0.041-0.212-0.082-0.427-0.124-0.648
	c-0.031-0.165-0.063-0.335-0.095-0.505c-0.039-0.205-0.077-0.411-0.117-0.623c-0.037-0.197-0.075-0.401-0.112-0.604
	c-0.036-0.195-0.072-0.39-0.109-0.59c-0.043-0.234-0.087-0.474-0.131-0.715c-0.033-0.181-0.066-0.36-0.099-0.545
	c-0.049-0.271-0.098-0.548-0.148-0.826c-0.03-0.168-0.06-0.334-0.09-0.504c-0.049-0.279-0.099-0.565-0.149-0.85
	c-0.032-0.182-0.063-0.362-0.095-0.545c-0.045-0.263-0.091-0.53-0.136-0.797c-0.037-0.216-0.073-0.43-0.11-0.648
	c-0.043-0.257-0.086-0.518-0.129-0.778c-0.037-0.222-0.073-0.442-0.11-0.665c-0.044-0.268-0.087-0.538-0.13-0.807
	c-0.036-0.224-0.072-0.446-0.108-0.671c-0.034-0.215-0.067-0.431-0.101-0.647c8.477,0.055,17.452,0.054,26.973-0.014
	c-10.888-5.938-20.285-12.095-28.379-18.386c1.32-7.745,27.66-3.967,22.594-16.032c-5.067-12.066,8.278-41.373,8.278-41.373
	s-6.738-0.81-19.594-16.525c-8.972-10.967-10.829-43.53-11.133-62.207h0c-0.107-6.563-0.022-11.413,0.014-13.007
	c0-0.005,0-0.009,0-0.014c0.003-0.116,0.005-0.214,0.007-0.294c0-0.004,0-0.008,0-0.011c0.002-0.068,0.003-0.117,0.004-0.157
	c0-0.012,0.001-0.03,0.001-0.039c0.001-0.025,0.001-0.049,0.001-0.049l-2.708-1.123c4.941-3.522,8.681-4.915,8.681-4.915
	c-38.343-39.294-95.712-33.005-131.335-23.718v188.13c14.692,3.786,43.854,8.077,101.521,9.379l2.636,16.297L122,459.5
	l-23.125,8.057V631h59.719l4.948-91.443c0,0,18.833-15.334,17.083-23.334c-1.175-5.371-5.16-13.305-7.657-23.129l186.145-146.621
	C365.263,341.63,366.322,332.718,361.478,326.57z"/>
<g opacity="0.3">
	<rect x="631.592" y="580.797" fill="#231F20" width="43.973" height="48.203"/>
	<path fill="#231F20" d="M762.513,244.603c-2.568-0.764-11.427-17.51-18.97-25.348c-46.716-45.843-73.072-50.29-73.072-50.29
		s-57.267,21.183-101.43,66.781c-6.652,9.257-23.585,13.187-23.585,13.187s19.19,11.341,14.598,20.135
		c1.797-1.16,3.334-1.369,4.594-1.127c0,0,0.012,0.064,0.028,0.155c0.011,0.06,0.023,0.129,0.041,0.226
		c0.002,0.009,0.004,0.021,0.005,0.03c0.021,0.116,0.046,0.258,0.075,0.419c0.004,0.024,0.009,0.051,0.014,0.076
		c0.029,0.161,0.061,0.344,0.096,0.544c0.005,0.028,0.01,0.056,0.015,0.084c0.038,0.218,0.08,0.457,0.124,0.715
		c0.003,0.019,0.006,0.037,0.01,0.056c0.247,1.43,0.583,3.429,0.942,5.727c0.001,0.009,0.003,0.018,0.004,0.027
		c0.07,0.448,0.141,0.907,0.212,1.375c0.003,0.018,0.005,0.036,0.008,0.054c0.366,2.405,0.741,5.05,1.06,7.663
		c0.774,6.334,1.221,12.479,0.402,14.553c-1.905,4.827-12.03,16.053-12.03,16.053s15.323,14.77,22.583,39.947
		c-0.387-0.147-0.782-0.281-1.189-0.393c-3.064-0.846-6.174-0.523-8.857,0.692c0,0,0,0,0,0c-0.004,0.002-0.007,0.004-0.011,0.006
		c-0.398,0.181-0.785,0.383-1.163,0.602c-0.078,0.045-0.151,0.096-0.228,0.142c-0.3,0.182-0.593,0.373-0.878,0.58
		c-0.102,0.074-0.2,0.153-0.299,0.23c-0.249,0.192-0.492,0.39-0.727,0.6c-0.109,0.098-0.216,0.198-0.322,0.3
		c-0.214,0.204-0.42,0.415-0.62,0.634c-0.107,0.118-0.213,0.236-0.316,0.358c-0.185,0.219-0.361,0.446-0.532,0.678
		c-0.099,0.134-0.198,0.266-0.292,0.404c-0.162,0.239-0.311,0.487-0.457,0.738c-0.083,0.143-0.171,0.282-0.249,0.429
		c-0.146,0.275-0.276,0.562-0.403,0.85c-0.059,0.134-0.126,0.262-0.181,0.399c-0.172,0.429-0.326,0.87-0.453,1.325
		c-0.692,2.472-16.587,60.944,14.827,97.005c12.424,14.261,30.014,22.72,52.519,25.329l0.3,6.326l3.292,0.606l-0.103,87.009
		l44.584-0.152l0.451-94.938l5.351-5.561l-1.832-5.457l-0.789-4.309l6.896-35.103l-16.948-13.794l-3.024,0.071
		c0.38-2.378,0.296-6.922,0.895-12.786c0,0,0,0.001,0,0.001c0.064-0.63,0.137-1.275,0.218-1.934c0-0.003,0.001-0.006,0.001-0.009
		c0.077-0.621,0.164-1.257,0.258-1.903c0.013-0.087,0.026-0.174,0.039-0.261c0.189-1.262,0.417-2.569,0.688-3.911
		c0.026-0.131,0.053-0.262,0.08-0.394c0.134-0.647,0.278-1.301,0.435-1.964c0.027-0.116,0.057-0.233,0.085-0.349
		c0.132-0.545,0.274-1.097,0.422-1.652c0.423,2.343,1.129,4.342,2.261,5.524c0,0,0.887-19.467,25.195-23.334
		c24.308-3.867,39.637-19.751,51.373-41.124c5.153-9.385,11.224-20.22,16.415-29.424v-63.85
		C763.999,244.465,763.134,244.787,762.513,244.603z M630.676,422.089l-4.319,21.158l0.81,17.107
		c-13.736-2.294-24.305-7.613-31.584-15.936c-11.281-12.9-13.394-31.602-13.181-45.021c0.164-10.289,1.686-19.209,2.722-24.16
		c20.345,3.419,45.365,8.206,45.365,8.206s3.38,29.454,1.818,38.608L630.676,422.089z"/>
</g>
<g>
	<g>
		<line x1="209.944" y1="120.591" x2="201.216" y2="126.618"/>
		<path fill="#FEF3DF" d="M201.216,127.501c-0.281,0-0.557-0.133-0.728-0.382c-0.277-0.402-0.177-0.952,0.225-1.229l8.729-6.027
			c0.401-0.277,0.952-0.177,1.229,0.225c0.277,0.402,0.177,0.952-0.225,1.229l-8.729,6.027
			C201.565,127.451,201.39,127.501,201.216,127.501z"/>
	</g>
	<g>
		<circle fill="#82CAC4" cx="212.604" cy="118.883" r="7.715"/>
	</g>
</g>
<path opacity="0.1" fill="#231F20" d="M220.981,143.363c-1.943-7.52-6.79-12.77-10.824-11.727c-1.206,0.312-2.197,1.159-2.951,2.383
	l-5.589-8.036c-0.446-0.641-1.013-0.684-1.267-0.096c-0.157,0.363-0.157,0.883-0.029,1.378c0.079,0.306,0.207,0.602,0.377,0.846
	l5.567,8.004c-0.926,2.904-0.967,6.873,0.106,11.025c1.943,7.52,6.79,12.77,10.824,11.727
	C221.229,157.824,222.924,150.883,220.981,143.363z"/>
<g>
	<g>
		<line x1="408.84" y1="53.208" x2="400.112" y2="59.235"/>
		<path fill="#FEF3DF" d="M400.113,60.119c-0.281,0-0.556-0.133-0.728-0.382c-0.277-0.402-0.177-0.952,0.225-1.229l8.729-6.027
			c0.401-0.277,0.952-0.177,1.229,0.225c0.277,0.402,0.177,0.952-0.225,1.229l-8.729,6.027
			C400.461,60.068,400.286,60.119,400.113,60.119z"/>
	</g>
	<g>
		<circle fill="#82CAC4" cx="411.5" cy="51.5" r="7.715"/>
	</g>
</g>
<path opacity="0.1" fill="#231F20" d="M419.877,75.98c-1.943-7.52-6.79-12.77-10.824-11.727c-1.206,0.312-2.197,1.159-2.951,2.383
	l-5.589-8.036c-0.446-0.641-1.013-0.684-1.267-0.096c-0.157,0.363-0.157,0.883-0.029,1.378c0.079,0.306,0.207,0.602,0.377,0.846
	l5.567,8.004c-0.926,2.904-0.967,6.873,0.106,11.025c1.943,7.52,6.79,12.77,10.824,11.727
	C420.126,90.441,421.821,83.5,419.877,75.98z"/>
<g>
	<g>
		<line x1="538.84" y1="173.708" x2="530.112" y2="179.735"/>
		<path fill="#FEF3DF" d="M530.113,180.619c-0.281,0-0.557-0.133-0.728-0.382c-0.277-0.402-0.177-0.952,0.225-1.229l8.729-6.027
			c0.401-0.277,0.952-0.177,1.229,0.225c0.277,0.402,0.177,0.952-0.225,1.229l-8.729,6.027
			C530.461,180.568,530.286,180.619,530.113,180.619z"/>
	</g>
	<g>
		<circle fill="#82CAC4" cx="541.5" cy="172" r="7.715"/>
	</g>
</g>
<path opacity="0.1" fill="#231F20" d="M549.877,196.48c-1.943-7.52-6.79-12.77-10.824-11.727c-1.206,0.312-2.197,1.159-2.951,2.383
	l-5.589-8.036c-0.446-0.641-1.013-0.684-1.267-0.096c-0.157,0.363-0.157,0.883-0.029,1.378c0.079,0.306,0.207,0.602,0.377,0.846
	l5.567,8.004c-0.926,2.904-0.967,6.873,0.106,11.025c1.943,7.52,6.79,12.77,10.824,11.727
	C550.126,210.941,551.821,204,549.877,196.48z"/>
<g>
	<path fill="#FEF3DF" d="M581.427,231.014c0,0,5.394,29.55,3.315,34.858c-2.08,5.308-13.132,17.65-13.132,17.65
		s25.329,24.59,28.416,64.835c22.748,3.769,53.271,9.651,53.271,9.651s3.725,32.686,1.963,42.593
		c-1.762,9.907,35.112,3.066,36.903,0.659c1.791-2.407-0.542-17.23,5.677-35.038C704.06,348.413,689.822,224.427,581.427,231.014z"
		/>
	<path fill="#F7C3AD" d="M697.84,366.221c6.22-17.808-8.019-141.795-116.413-135.208c0,0,1.758,9.633,2.88,18.888
		c5.239,5.769,37.434,41.772,33.933,51.481c-3.809,10.565,4.719-8.018,4.719-8.018s24.07,31.308,19.716,43.025
		c2.542-2.16,3.058-10.812,3.058-10.812l1.16,28.596c0,0,10.131-30.789,24.498-26.645c14.365,4.145,23.733,21.709,14.412,42.195
		c5.732-4.772,8.19-2.632,8.19-2.632s-1.403,10.521-0.317,18.428C694.239,379.962,695.356,373.331,697.84,366.221z"/>
	<polygon fill="#EB583F" points="704,468.5 703.5,574.5 654.833,574.667 654.946,479 651.352,478.333 648.786,423.764 653.5,400.5 
		696,399.5 714.5,414.667 	"/>
	
		<ellipse transform="matrix(0.9936 0.1134 -0.1134 0.9936 33.3627 -65.6993)" fill="#083F5E" cx="594.288" cy="260.464" rx="3" ry="8.333"/>
	<path fill="none" stroke="#FEF3DF" stroke-width="28.3465" stroke-linecap="round" stroke-miterlimit="10" d="M591.167,340.667
		c0,0-37.084,133.416,100.503,115.927"/>
	<rect x="654.5" y="575" fill="#083F5E" width="48" height="53"/>
	<path fill="#F7C3AD" d="M700.457,463.654c-8.873,1.127-17.296,1.69-25.25,1.69c-32.938,0.001-57.933-9.648-74.511-28.816
		c-34.29-39.648-16.94-103.939-16.185-106.657c0.204-0.733,0.477-1.427,0.783-2.099c-3.676,1.677-6.616,4.901-7.783,9.099
		c-0.756,2.718-18.105,67.009,16.185,106.657c16.578,19.168,41.573,28.817,74.511,28.816c7.954,0,16.377-0.563,25.25-1.69
		c5.038-0.641,9.107-3.859,11.083-8.157C703.276,463.072,701.906,463.47,700.457,463.654z"/>
	<polyline fill="#EB583F" points="698.833,408.5 707.833,458 709.833,464 699.167,475.167 676.5,443.167 679.833,440.833 	"/>
	<path fill="#083F5E" d="M800.07,204.558c-1.038,0.644-1.983,0.998-2.661,0.796c-2.803-0.84-12.474-19.252-20.707-27.871
		c-50.994-50.404-79.763-55.294-79.763-55.294s-62.511,23.291-110.719,73.427c-7.261,10.178-25.744,14.499-25.744,14.499
		s20.948,12.469,15.935,22.139c6.035-3.923,9.408,2.014,9.408,2.014s38.461,41.703,34.651,52.267
		c-3.81,10.565,4.719-8.018,4.719-8.018s24.071,31.308,19.716,43.025c2.541-2.16,3.058-10.812,3.058-10.812l1.16,28.596
		c0,0,10.132-30.789,24.498-26.644c14.366,4.145,23.734,21.709,14.412,42.195c5.732-4.772,8.19-2.632,8.19-2.632
		s-2.722,20.411,2.349,25.741c0,0,0.968-21.404,27.502-25.656c26.534-4.252,43.267-21.717,56.077-45.216
		c5.625-10.319,12.252-22.232,17.918-32.352V204.558z"/>
</g>
<g>
	<path fill="#FEF3DF" d="M95.928,263.265l29.934,12.419c0,0-1.751,60.064,11.105,75.779c12.856,15.715,19.594,16.525,19.594,16.525
		s-13.345,29.307-8.278,41.373c5.067,12.066-21.275,8.287-22.594,16.033c-1.319,7.746,4.511,35.446,4.511,35.446l-24.949,2.561
		l-4.168-25.766L7.764,305.403L95.928,263.265z"/>
	<path fill="#F7C3AD" d="M95.928,263.265L7.764,305.403l93.318,132.231l3.214,19.862c7.883,0.185,16.307,0.314,25.303,0.378
		c-0.884-4.473-2.531-13.24-3.448-20.821c-75.821-61.78-28.892-135.305-24.595-141.685c-1.189,1.951-5.121,10.776,1.725,34.706
		c2.584-22.102,14.062-34.516,22.551-40.818c-0.132-8.085,0.028-13.572,0.028-13.572L95.928,263.265z"/>
	
		<ellipse transform="matrix(0.9578 -0.2875 0.2875 0.9578 -94.4023 51.4607)" fill="#083F5E" cx="128.008" cy="347.143" rx="3" ry="8.333"/>
	<g>
		<path fill="#FEF3DF" d="M108.614,521.255c-4.194,0-8.347-1.853-11.144-5.404c-4.843-6.148-3.785-15.061,2.364-19.903
			l218.989-172.491c6.148-4.845,15.061-3.786,19.904,2.364c4.843,6.148,3.785,15.061-2.364,19.903L117.375,518.215
			C114.777,520.262,111.684,521.255,108.614,521.255z"/>
	</g>
	<path fill="#F7C3AD" d="M339.478,326.57c-0.474-0.602-0.997-1.14-1.542-1.644c0.463,4.655-1.374,9.439-5.322,12.548
		L113.625,509.965c-2.598,2.047-5.691,3.04-8.761,3.04c-3.484,0-6.928-1.297-9.601-3.766c0.257,2.599,1.222,5.158,2.958,7.362
		c2.797,3.552,6.949,5.404,11.144,5.404c3.07,0,6.163-0.993,8.761-3.04l218.989-172.491
		C343.263,341.63,344.322,332.718,339.478,326.57z"/>
	<path fill="#083F5E" d="M136.594,631l4.948-91.443c0,0,18.833-15.334,17.083-23.334s-9.75-21.666-9.75-38.833
		C148.395,472.041,130,461,130,461l-30-1.5l-23.125,8.057V631H136.594z"/>
	<path fill="#EB583F" d="M98.045,281.28c-1.19,1.951-5.122,10.776,1.725,34.706c4.211-36.025,32.065-46.341,32.065-46.341
		C93.492,230.352,36.124,236.641,0.5,245.927v188.13c18.581,4.788,60.295,10.385,153.568,9.721
		C35.404,379.064,93.251,288.398,98.045,281.28z"/>
</g>
</svg>
