<?xml version="1.0" encoding="utf-8"?>
<!-- Generator: Adobe Illustrator 17.0.0, SVG Export Plug-In . SVG Version: 6.00 Build 0)  -->
<!DOCTYPE svg PUBLIC "-//W3C//DTD SVG 1.1//EN" "http://www.w3.org/Graphics/SVG/1.1/DTD/svg11.dtd">
<svg version="1.1" id="Layer_1" xmlns="http://www.w3.org/2000/svg" xmlns:xlink="http://www.w3.org/1999/xlink" x="0px" y="0px"
	 width="225px" height="30px" viewBox="20.167 0.833 225 30" enable-background="new 20.167 0.833 225 30" xml:space="preserve">
<path fill="#342E3F" d="M0,58.667v22.438c0-2.485,2.015-4.5,4.5-4.5S9,78.62,9,81.105s-2.015,4.5-4.5,4.5S0,83.59,0,81.105v18.479
	h325V58.667H0z M11.346,79.712l-1.478-2.42c0.995-0.607,2.033-1.21,3.083-1.792l1.373,2.48
	C13.309,78.542,12.307,79.125,11.346,79.712z M26.542,72.792c0,2.485-2.015,4.5-4.5,4.5c-1.357,0-2.559-0.613-3.384-1.562
	c-0.437,0.213-0.869,0.425-1.284,0.635l-1.278-2.529c0.477-0.241,0.971-0.485,1.477-0.731C17.566,73,17.542,72.9,17.542,72.793
	c0-2.485,2.015-4.5,4.5-4.5c1.3,0,2.462,0.56,3.284,1.441c0.175-0.068,0.343-0.136,0.52-0.204l1.013,2.648
	c-0.124,0.047-0.241,0.095-0.364,0.143C26.511,72.477,26.542,72.63,26.542,72.792z M30.107,70.998l-0.923-2.68
	c1.092-0.376,2.217-0.744,3.376-1.102l0.835,2.709C32.267,70.273,31.17,70.632,30.107,70.998z M46.14,69.506
	c-0.878-0.275-1.75-0.509-2.61-0.719c-0.76,1.41-2.232,2.38-3.946,2.38c-2.485,0-4.5-2.015-4.5-4.5s2.015-4.5,4.5-4.5
	c2.253,0,4.102,1.66,4.432,3.82c0.979,0.234,1.974,0.5,2.972,0.813L46.14,69.506z M49.345,70.644l1.039-2.637
	c1.066,0.42,2.176,0.896,3.296,1.416l-1.192,2.572C51.417,71.498,50.359,71.044,49.345,70.644z M57.125,77.292
	c-2.485,0-4.5-2.015-4.5-4.5s2.015-4.5,4.5-4.5s4.5,2.015,4.5,4.5S59.61,77.292,57.125,77.292z M64.601,78.723
	c-0.989-0.604-1.985-1.209-2.989-1.807l1.451-2.436c1.012,0.604,2.017,1.214,3.014,1.822L64.601,78.723z M74.667,87.542
	c-2.485,0-4.5-2.015-4.5-4.5c0-0.304,0.032-0.601,0.09-0.888c-0.885-0.526-1.772-1.059-2.664-1.603l1.476-2.42
	c0.874,0.532,1.743,1.054,2.61,1.57c0.796-0.713,1.836-1.159,2.989-1.159c2.485,0,4.5,2.015,4.5,4.5S77.152,87.542,74.667,87.542z
	 M83.534,88.532c-1.096-0.343-2.244-0.762-3.41-1.245l1.086-2.619c1.088,0.451,2.154,0.842,3.169,1.159L83.534,88.532z
	 M92.208,93.292c-2.232,0-4.071-1.629-4.425-3.76c-0.231-0.037-0.461-0.062-0.693-0.105l0.522-2.787
	c0.206,0.039,0.41,0.06,0.616,0.094c0.749-1.444,2.24-2.441,3.98-2.441c1.68,0,3.127,0.931,3.9,2.295
	c0.432-0.088,0.862-0.179,1.275-0.291l0.746,2.734c-0.48,0.131-0.978,0.238-1.479,0.339C96.364,91.579,94.496,93.292,92.208,93.292z
	 M101.64,87.732l-1.215-2.561c0.957-0.454,1.879-0.991,2.82-1.645l1.615,2.33C103.791,86.599,102.737,87.213,101.64,87.732z
	 M114.25,79.792c0,2.485-2.015,4.5-4.5,4.5s-4.5-2.015-4.5-4.5s2.015-4.5,4.5-4.5c0.896,0,1.726,0.269,2.427,0.72
	c0.717-0.509,1.419-0.948,2.122-1.318l1.321,2.508c-0.547,0.288-1.099,0.632-1.666,1.026C114.137,78.717,114.25,79.24,114.25,79.792
	z M118.551,76.087l-0.666-2.756c1.192-0.288,2.465-0.441,3.783-0.454l0.028,2.834C120.578,75.723,119.549,75.845,118.551,76.087z
	 M127.292,79.542c-2.485,0-4.5-2.015-4.5-4.5s2.015-4.5,4.5-4.5c2.485,0,4.5,2.015,4.5,4.5S129.777,79.542,127.292,79.542z
	 M135.37,77.771c-1.156-0.128-2.347-0.289-3.54-0.479l0.446-2.799c1.148,0.183,2.294,0.338,3.406,0.462L135.37,77.771z
	 M144.833,81.042c-1.927,0-3.558-1.217-4.2-2.92c-0.566-0.017-1.133-0.016-1.697-0.049l0.164-2.83
	c0.479,0.028,0.954,0.026,1.433,0.042c0.547-1.869,2.254-3.243,4.3-3.243c1.918,0,3.544,1.205,4.192,2.896
	c0.099-0.013,0.2-0.021,0.298-0.034l0.374,2.811c-0.183,0.024-0.373,0.042-0.558,0.064C148.6,79.658,146.887,81.042,144.833,81.042z
	 M153.254,77.107l-0.58-2.775c1.112-0.232,2.219-0.51,3.29-0.824l0.799,2.721C155.62,76.563,154.439,76.859,153.254,77.107z
	 M166.875,72.292c0,2.485-2.015,4.5-4.5,4.5s-4.5-2.015-4.5-4.5s2.015-4.5,4.5-4.5c1.385,0,2.608,0.639,3.433,1.623
	c1.049-0.45,2.056-0.845,3.056-1.188l0.92,2.682c-0.957,0.328-1.922,0.707-2.934,1.142
	C166.855,72.132,166.875,72.209,166.875,72.292z M179.917,72.167c-1.847,0-3.43-1.115-4.123-2.706
	c-0.923,0.129-1.855,0.293-2.779,0.511l-0.65-2.76c1.058-0.249,2.126-0.437,3.183-0.581c0.469-1.984,2.241-3.465,4.369-3.465
	c2.485,0,4.5,2.015,4.5,4.5S182.402,72.167,179.917,72.167z M189.489,70.846c-1.069-0.367-2.154-0.678-3.226-0.923l0.635-2.764
	c1.167,0.269,2.349,0.606,3.511,1.005L189.489,70.846z M201.731,77.044c-0.419-0.244-0.816-0.47-1.228-0.707
	c-0.802,0.742-1.867,1.206-3.046,1.206c-2.485,0-4.5-2.015-4.5-4.5c0-0.258,0.034-0.507,0.076-0.753
	c-0.136-0.063-0.275-0.139-0.41-0.2l1.164-2.584c0.194,0.087,0.39,0.183,0.586,0.275c0.806-0.762,1.887-1.238,3.085-1.238
	c2.485,0,4.5,2.015,4.5,4.5c0,0.279-0.034,0.549-0.082,0.814c0.429,0.248,0.843,0.484,1.281,0.739L201.731,77.044z M207.794,80.579
	c-1.028-0.595-2.043-1.186-3.038-1.768l1.432-2.447c0.991,0.58,2,1.169,3.024,1.76L207.794,80.579z M220.25,87.262
	c-0.622-0.298-1.237-0.612-1.855-0.921c-0.825,0.957-2.032,1.576-3.395,1.576c-2.485,0-4.5-2.015-4.5-4.5
	c0-1.428,0.678-2.685,1.715-3.509l0.031-0.054c0.007,0.004,0.014,0.008,0.021,0.012c0.76-0.586,1.7-0.948,2.734-0.948
	c2.485,0,4.5,2.015,4.5,4.5c0,0.1-0.023,0.194-0.03,0.293c0.667,0.335,1.333,0.673,2.004,0.995L220.25,87.262z M226.781,90.099
	c-1.054-0.406-2.164-0.863-3.299-1.358l1.133-2.598c1.098,0.479,2.169,0.92,3.186,1.312L226.781,90.099z M232.542,95.792
	c-2.485,0-4.5-2.015-4.5-4.5s2.015-4.5,4.5-4.5s4.5,2.015,4.5,4.5S235.027,95.792,232.542,95.792z M240.758,93.519
	c-1.167-0.084-2.383-0.233-3.616-0.446l0.48-2.793c1.142,0.196,2.265,0.335,3.337,0.411L240.758,93.519z M250.083,95.792
	c-1.71,0-3.179-0.965-3.94-2.369c-0.565,0.064-1.136,0.115-1.713,0.143l-0.139-2.832c0.459-0.022,0.911-0.066,1.36-0.113
	c0.326-2.165,2.177-3.829,4.432-3.829c1.481,0,2.783,0.725,3.603,1.828c0.154-0.05,0.301-0.095,0.457-0.146l0.883,2.693
	c-0.152,0.05-0.295,0.094-0.445,0.143C254.572,93.787,252.563,95.792,250.083,95.792z M258.376,90.033l-0.932-2.678
	c1.064-0.37,2.164-0.761,3.292-1.168l0.963,2.666C260.56,89.265,259.45,89.659,258.376,90.033z M272.125,85.167
	c0,2.485-2.015,4.5-4.5,4.5s-4.5-2.015-4.5-4.5s2.015-4.5,4.5-4.5c1.415,0,2.661,0.666,3.486,1.687l2.778-1.034l0.987,2.656
	l-2.767,1.031C272.111,85.061,272.125,85.112,272.125,85.167z M285.167,83.417c-1.625,0-3.035-0.869-3.827-2.159l0.108,0.298
	c-1.1,0.399-2.195,0.801-3.287,1.203l-0.98-2.66c1.096-0.404,2.197-0.808,3.301-1.207l0.253,0.697
	c-0.033-0.221-0.068-0.442-0.068-0.672c0-2.485,2.015-4.5,4.5-4.5s4.5,2.015,4.5,4.5S287.652,83.417,285.167,83.417z
	 M291.352,78.103l-0.891-2.691c1.129-0.373,2.25-0.735,3.359-1.084l0.85,2.704C293.574,77.375,292.467,77.733,291.352,78.103z
	 M302.708,77.917c-1.621,0-3.029-0.864-3.821-2.149c-0.297,0.085-0.585,0.161-0.885,0.249l-0.799-2.721
	c0.355-0.104,0.696-0.194,1.047-0.294c0.213-2.287,2.115-4.084,4.458-4.084c1.574,0,2.955,0.811,3.759,2.035
	c0.365-0.074,0.735-0.151,1.087-0.217l0.523,2.785c-0.291,0.055-0.598,0.119-0.898,0.18
	C307.031,76.051,305.097,77.917,302.708,77.917z M311.454,72.989l-0.346-2.814c1.303-0.159,2.526-0.253,3.638-0.276l0.061,2.834
	C313.79,72.754,312.662,72.841,311.454,72.989z M320.25,76.417c-2.485,0-4.5-2.015-4.5-4.5s2.015-4.5,4.5-4.5s4.5,2.015,4.5,4.5
	S322.735,76.417,320.25,76.417z"/>
<g>
	<polygon fill="#342E3F" points="158.015,14.313 158.875,14.744 159.073,14.405 158.213,13.974 	"/>
	<polygon fill="#342E3F" points="112.433,14.188 113.394,14.245 113.424,13.853 112.471,13.797 	"/>
	
		<rect x="203.195" y="18.685" transform="matrix(-0.3546 -0.935 0.935 -0.3546 257.5906 216.1364)" fill="#342E3F" width="0.392" height="0.959"/>
	<polygon fill="#342E3F" points="180.744,24.458 181.696,24.622 181.749,24.233 180.811,24.072 	"/>
	
		<rect x="33.507" y="11.552" transform="matrix(-0.4222 -0.9065 0.9065 -0.4222 37.0282 47.662)" fill="#342E3F" width="0.393" height="0.957"/>
	<polygon fill="#342E3F" points="78.944,21.959 79.901,22.117 79.958,21.729 79.023,21.575 	"/>
	<path fill="#342E3F" d="M20.167,0.803v16.629c0.03-0.347,0.209-0.678,0.519-0.885l1.229,2.014
		c-0.552,0.306-1.251,0.128-1.582-0.416c-0.101-0.165-0.151-0.345-0.164-0.526v13.214h224.999v-30L20.167,0.803z M235.554,9.082
		c0.17-0.614,0.794-0.976,1.409-0.833l-0.63,2.273C235.731,10.327,235.383,9.695,235.554,9.082z M227.07,8.709l0.001,0.005
		c0.626-0.075,1.207,0.353,1.31,0.981c0.102,0.629-0.312,1.219-0.93,1.347l0.001,0.005l-2.028,0.331l-0.381-2.338L227.07,8.709z
		 M215.245,12.255l0.002,0.005c0.607-0.17,1.247,0.164,1.444,0.77c0.134,0.414,0.024,0.843-0.245,1.146l0.871-0.29l0.151,0.456
		l-0.911,0.302l-0.145-0.432c-0.119,0.124-0.265,0.226-0.436,0.29l0.002,0.005l-0.433,0.141l0.103,0.303l-0.907,0.311l-0.109-0.317
		l-0.607,0.198l-0.733-2.253L215.245,12.255z M192.571,20.446l0.002,0.005c0.613-0.152,1.241,0.201,1.421,0.812
		c0.122,0.416,0,0.839-0.275,1.134l0.114-0.039l0.155,0.454l-0.911,0.307l-0.108-0.322l-0.92,0.27l0.113,0.353
		c-0.312,0.101-0.618,0.197-0.919,0.29l-0.141-0.458c0.045-0.014,0.094-0.03,0.138-0.044l-0.64-2.184L192.571,20.446z
		 M190.218,21.141l0.663,2.264c-0.613,0.152-1.241-0.201-1.421-0.812C189.282,21.981,189.62,21.344,190.218,21.141z M168.032,18.092
		c0.262-0.581,0.934-0.843,1.52-0.608l-0.971,2.15C168.017,19.35,167.77,18.673,168.032,18.092z M156.598,11.84
		c0.285-0.57,0.967-0.805,1.543-0.546l-1.057,2.109C156.532,13.096,156.312,12.409,156.598,11.84z M155.757,12.465l0.833,0.479
		l-0.24,0.415l-0.831-0.479L155.757,12.465z M138.39,8.661c-0.315,0.054-0.626,0.115-0.931,0.182l-0.102-0.469
		c0.312-0.068,0.629-0.13,0.951-0.186L138.39,8.661z M136.166,6.425l0.002,0.005c0.61-0.162,1.245,0.181,1.434,0.789
		c0.189,0.608-0.139,1.25-0.733,1.463l0.002,0.005l-0.4,0.125l0.067,0.255c-0.31,0.082-0.614,0.169-0.913,0.261l-0.072-0.231
		l-0.644,0.2l-0.704-2.261L136.166,6.425z M92.896,17.414l0.322,0.356c-0.237,0.215-0.477,0.428-0.723,0.64l-0.313-0.364
		C92.425,17.838,92.662,17.626,92.896,17.414z M54.868,8.116c0.234-0.592,0.892-0.887,1.488-0.68L55.49,9.629
		C54.913,9.374,54.633,8.709,54.868,8.116z M54.308,9.079c0.298,0.12,0.595,0.245,0.889,0.372l-0.19,0.44
		c-0.292-0.127-0.585-0.249-0.879-0.368L54.308,9.079z M47.276,7.147c0.178,0.024,0.356,0.05,0.534,0.079l-0.075,0.474
		c-0.159-0.025-0.319-0.049-0.479-0.071l-0.369,0.089L46.774,7.25l0.458-0.109L47.276,7.147z M21.022,16.336l1.755-1.07l0.002,0.004
		c0.552-0.306,1.251-0.128,1.582,0.416c0.332,0.544,0.17,1.247-0.354,1.597l0.002,0.004l-1.755,1.07L21.022,16.336z M21.769,20.502
		c-0.332-0.544-0.17-1.247,0.354-1.597l1.229,2.014C22.8,21.223,22.101,21.046,21.769,20.502z M25.445,19.64l0.002,0.004
		l-1.755,1.07l-1.234-2.022l1.755-1.07l0.002,0.004c0.095-0.053,0.195-0.086,0.295-0.11l-0.262-0.336c0,0,0.267-0.209,0.788-0.571
		l0.273,0.394c-0.342,0.237-0.562,0.401-0.675,0.486c0.449-0.06,0.911,0.141,1.163,0.553C26.132,18.587,25.97,19.289,25.445,19.64z
		 M27.472,15.6l-0.25-0.409c0.259-0.159,0.535-0.324,0.827-0.495l0.243,0.414C28.003,15.279,27.73,15.444,27.472,15.6z
		 M29.121,14.634l-0.236-0.418c0.27-0.152,0.551-0.308,0.844-0.467l0.229,0.422C29.667,14.329,29.389,14.483,29.121,14.634z
		 M30.8,13.721l-0.222-0.425c0.277-0.145,0.563-0.292,0.856-0.441l0.216,0.428C31.359,13.431,31.075,13.577,30.8,13.721z
		 M36.194,13.706l0.002,0.005l-1.868,0.856l-0.968-2.114c-0.123,0.057-0.239,0.114-0.358,0.171l0.962,2.103
		c-0.585,0.238-1.257-0.02-1.523-0.6c-0.224-0.49-0.082-1.047,0.306-1.382c-0.079,0.038-0.161,0.076-0.239,0.114l-0.211-0.431
		c0.104-0.05,0.214-0.101,0.32-0.152c-0.532,0.115-1.089-0.144-1.325-0.659c-0.266-0.579-0.021-1.258,0.541-1.545l0.969,2.116
		c0.12-0.057,0.237-0.114,0.358-0.171l-0.968-2.114l1.868-0.856l0.002,0.005c0.585-0.238,1.257,0.02,1.523,0.6
		c0.265,0.579,0.021,1.258-0.541,1.545l0.002,0.005l-0.111,0.051l0.156,0.36l0.118-0.054l0.002,0.005
		c0.585-0.238,1.257,0.02,1.523,0.6C36.999,12.741,36.755,13.419,36.194,13.706z M35.992,11.283l-0.185-0.442
		c0.292-0.123,0.589-0.244,0.891-0.366l0.179,0.445C36.576,11.041,36.282,11.162,35.992,11.283z M37.766,10.568l-0.173-0.448
		c0.295-0.115,0.596-0.229,0.9-0.342l0.167,0.449C38.357,10.341,38.059,10.454,37.766,10.568z M39.558,9.901L39.397,9.45
		c0.299-0.107,0.602-0.212,0.908-0.317l0.156,0.453C40.156,9.69,39.855,9.795,39.558,9.901z M41.368,9.283l-0.149-0.456
		c0.302-0.099,0.608-0.196,0.917-0.294l0.144,0.458C41.972,9.087,41.668,9.185,41.368,9.283z M43.346,9.853
		c-0.151-0.536,0.094-1.087,0.557-1.348c-0.238,0.068-0.476,0.137-0.71,0.207l-0.137-0.46c0.225-0.068,0.456-0.134,0.685-0.2
		c-0.519,0.004-0.998-0.332-1.146-0.856c-0.173-0.613,0.172-1.246,0.772-1.443l0.64,2.27c-0.005,0.002-0.01,0.001-0.015,0.002
		l0.11,0.391c0.005-0.002,0.009-0.005,0.013-0.006l0.64,2.27C44.143,10.826,43.519,10.467,43.346,9.853z M47.118,10.014l0.002,0.005
		l-1.978,0.558l-0.643-2.279l0.524-0.148l-0.102-0.379l-0.529,0.149l-0.643-2.279l1.978-0.558l0.002,0.005
		c0.614-0.145,1.239,0.214,1.413,0.827c0.173,0.613-0.172,1.246-0.772,1.443l0.002,0.005L45.846,7.51l0.097,0.38l0.533-0.15
		l0.002,0.005c0.614-0.145,1.239,0.214,1.412,0.827C48.063,9.184,47.718,9.817,47.118,10.014z M49.603,8.066
		c-0.308-0.072-0.618-0.14-0.931-0.201l0.094-0.471c0.317,0.063,0.633,0.131,0.948,0.204L49.603,8.066z M51.439,8.566
		c-0.303-0.094-0.608-0.182-0.914-0.265l0.126-0.463c0.311,0.085,0.621,0.174,0.93,0.269L51.439,8.566z M53.241,9.179
		c-0.298-0.112-0.596-0.218-0.897-0.321l0.155-0.454c0.305,0.104,0.608,0.212,0.91,0.325L53.241,9.179z M53.854,10.685
		c0.234-0.592,0.892-0.887,1.488-0.68l-0.866,2.194C53.9,11.942,53.621,11.277,53.854,10.685z M57.772,10.53l-0.002,0.005
		l-1.41-0.556c0.197,0.092,0.394,0.184,0.59,0.279l-0.152,0.315l0.828,0.327l-0.002,0.005c0.022,0.009,0.04,0.024,0.06,0.035
		l0.128-0.252c0.287,0.145,0.572,0.294,0.856,0.443l-0.224,0.424c-0.089-0.047-0.179-0.093-0.269-0.139
		c0.166,0.298,0.206,0.662,0.071,1.003c-0.234,0.592-0.892,0.887-1.488,0.68l-0.002,0.005l-1.912-0.754l0.87-2.203l0.192,0.075
		l0.164-0.357L55.859,9.78l0.87-2.203l1.912,0.754l-0.002,0.005c0.577,0.256,0.856,0.921,0.622,1.513
		C59.026,10.442,58.368,10.737,57.772,10.53z M60.122,12.472c-0.277-0.157-0.556-0.312-0.836-0.465l0.23-0.421
		c0.282,0.154,0.563,0.31,0.842,0.468L60.122,12.472z M61.783,13.432c-0.275-0.163-0.551-0.324-0.827-0.484l0.24-0.415
		c0.278,0.161,0.555,0.323,0.831,0.486L61.783,13.432z M63.431,14.419l-0.823-0.497l0.247-0.411l0.825,0.497L63.431,14.419z
		 M64.5,14.508l0.82,0.501l-0.251,0.409l-0.818-0.5L64.5,14.508z M65.137,16.829c0.292-0.494,0.885-0.692,1.407-0.51l-0.656-0.4
		l0.25-0.409l0.556,0.339c-0.345-0.373-0.426-0.938-0.155-1.399c0.324-0.548,1.02-0.737,1.576-0.439L66.942,16l0.013,0.009
		l-0.248,0.41l-0.009-0.005l-1.184,2.008C64.985,18.077,64.813,17.377,65.137,16.829z M70.024,18.369
		c-0.279-0.156-0.557-0.315-0.837-0.477l0.24-0.415c0.277,0.16,0.555,0.318,0.831,0.473L70.024,18.369z M70.606,16.849
		c-0.324,0.548-1.02,0.737-1.576,0.439l-0.002,0.004l-0.447-0.264l-0.2,0.338l0.447,0.264l-0.002,0.004
		c0.53,0.343,0.702,1.043,0.378,1.592c-0.324,0.548-1.02,0.737-1.576,0.439l-0.002,0.005l-1.77-1.044l1.204-2.041l0.494,0.292
		l0.202-0.336l-0.497-0.293l1.204-2.04l1.77,1.044l-0.002,0.004C70.758,15.601,70.93,16.301,70.606,16.849z M71.719,19.286
		c-0.284-0.148-0.567-0.298-0.851-0.452l0.228-0.422c0.282,0.152,0.563,0.302,0.845,0.448L71.719,19.286z M73.45,20.138
		c-0.29-0.134-0.58-0.273-0.871-0.416l0.212-0.431c0.287,0.141,0.574,0.279,0.86,0.412L73.45,20.138z M75.226,20.898
		c-0.298-0.117-0.596-0.24-0.893-0.368l0.189-0.441c0.294,0.126,0.587,0.247,0.881,0.362L75.226,20.898z M76.293,20.783
		c0.3,0.105,0.6,0.204,0.901,0.296l-0.14,0.459c-0.307-0.094-0.614-0.195-0.92-0.302L76.293,20.783z M80.897,21.829l-0.043,0.478
		c-0.035-0.003-0.068-0.009-0.103-0.013c0.493,0.207,0.798,0.729,0.707,1.28c-0.104,0.629-0.685,1.055-1.311,0.979l-0.001,0.005
		l-2.027-0.335l0.38-2.303c-0.13-0.03-0.258-0.057-0.388-0.09l-0.383,2.323c-0.618-0.129-1.031-0.72-0.927-1.348
		c0.103-0.622,0.674-1.045,1.293-0.979c-0.036-0.009-0.072-0.016-0.108-0.025l0.103-0.399c-0.566-0.166-0.937-0.724-0.838-1.321
		c0.104-0.629,0.685-1.055,1.311-0.979l-0.372,2.253c0.129,0.033,0.258,0.06,0.388,0.09l0.377-2.283l2.027,0.335l-0.001,0.005
		c0.618,0.129,1.031,0.72,0.927,1.348c-0.088,0.533-0.521,0.918-1.032,0.977C80.884,21.828,80.891,21.829,80.897,21.829z
		 M82.268,22.372c-0.148,0-0.296-0.002-0.443-0.007l0.014-0.479c0.313,0.009,0.628,0.009,0.944-0.002l0.017,0.479
		C82.623,22.369,82.445,22.372,82.268,22.372z M83.771,22.298l-0.045-0.478c0.322-0.03,0.634-0.068,0.937-0.115l0.073,0.474
		C84.423,22.228,84.102,22.268,83.771,22.298z M85.691,22.004l-0.102-0.469c0.314-0.068,0.618-0.146,0.912-0.232l0.134,0.46
		C86.33,21.852,86.016,21.932,85.691,22.004z M87.559,21.458l-0.167-0.45c0.3-0.111,0.589-0.231,0.869-0.357l0.199,0.436
		C88.171,21.219,87.871,21.343,87.559,21.458z M89.037,22.138c-0.292-0.539-0.116-1.197,0.38-1.534
		c-0.029,0.016-0.056,0.034-0.085,0.049l-0.21-0.387c-0.531,0.17-1.124-0.049-1.399-0.557c-0.303-0.56-0.105-1.254,0.437-1.577
		l1.089,2.013c0.117-0.065,0.229-0.134,0.343-0.201l-1.084-2.005l1.807-0.977l0.002,0.005c0.567-0.277,1.256-0.063,1.559,0.497
		c0.262,0.485,0.148,1.067-0.237,1.425l0.111,0.139c-0.251,0.2-0.508,0.396-0.773,0.586l-0.165-0.229l-0.842,0.456l0.202,0.318
		c-0.224,0.141-0.457,0.276-0.694,0.408l1.119,2.068C90.03,22.912,89.341,22.698,89.037,22.138z M92.754,21.469l0.002,0.005
		l-1.807,0.977l-1.127-2.084l1.807-0.977l0.002,0.005c0.567-0.277,1.256-0.063,1.559,0.497
		C93.494,20.452,93.296,21.145,92.754,21.469z M93.928,17.121l-0.325-0.353l0.708-0.65l0.323,0.355L93.928,17.121z M95.345,15.839
		l-0.314-0.362c0.245-0.212,0.492-0.42,0.743-0.621l0.299,0.375C95.827,15.427,95.585,15.63,95.345,15.839z M96.827,14.663
		l-0.277-0.392c0.266-0.187,0.537-0.365,0.817-0.532l0.245,0.412C97.344,14.311,97.082,14.483,96.827,14.663z M98.437,13.707
		l-0.207-0.433c0.297-0.142,0.601-0.269,0.904-0.379l0.163,0.451C99.01,13.45,98.72,13.572,98.437,13.707z M99.519,14.408
		c-0.094-0.63,0.328-1.215,0.947-1.335l0.35,2.333C100.188,15.474,99.613,15.038,99.519,14.408z M103.241,15.042l0.001,0.005
		l-2.032,0.305l-0.351-2.342l1.394-0.209c-0.072,0.002-0.148-0.001-0.218,0.003l-0.02-0.364l-0.955,0.144l0.046,0.313
		c-0.31,0.046-0.618,0.106-0.915,0.18l-0.103-0.414c-0.492-0.082-0.899-0.464-0.977-0.984c-0.094-0.63,0.328-1.215,0.947-1.335
		l0.331,2.205c0.129-0.027,0.258-0.054,0.391-0.077l-0.329-2.193l2.032-0.305l0.001,0.005c0.628-0.068,1.203,0.368,1.297,0.998
		c0.094,0.63-0.328,1.215-0.947,1.335v0.001c0.053,0.001,0.101-0.004,0.153-0.002l-0.01,0.398c0.594-0.021,1.123,0.397,1.213,0.999
		C104.283,14.337,103.861,14.922,103.241,15.042z M104.851,12.966c-0.323-0.05-0.636-0.09-0.938-0.119l0.046-0.477
		c0.312,0.03,0.633,0.071,0.966,0.122L104.851,12.966z M106.718,13.343c-0.211-0.045-0.422-0.092-0.636-0.14l-0.301-0.065
		l0.098-0.469l0.308,0.067c0.212,0.048,0.422,0.094,0.63,0.138L106.718,13.343z M108.609,13.713
		c-0.313-0.056-0.629-0.115-0.947-0.177l0.092-0.471c0.316,0.062,0.629,0.12,0.939,0.175L108.609,13.713z M110.513,14.015
		c-0.314-0.044-0.632-0.091-0.954-0.142l0.075-0.474c0.318,0.051,0.633,0.098,0.944,0.141L110.513,14.015z M114.201,16.66v0.005
		l-2.052-0.121l0.137-2.315c-0.13-0.013-0.263-0.028-0.395-0.043l-0.138,2.33c-0.628-0.064-1.101-0.608-1.063-1.245
		c0.035-0.591,0.5-1.046,1.071-1.1c-0.098-0.011-0.194-0.02-0.292-0.032l0.057-0.477c0.018,0.002,0.036,0.004,0.055,0.006
		c-0.45-0.189-0.757-0.639-0.727-1.153c0.038-0.636,0.571-1.121,1.202-1.11l-0.136,2.301c0.132,0.015,0.265,0.03,0.395,0.043
		l0.137-2.326l2.052,0.121v0.005c0.628,0.064,1.101,0.608,1.063,1.245c-0.038,0.636-0.571,1.121-1.202,1.11v0.005l-0.492-0.029
		c0.168,0.011,0.339,0.024,0.504,0.033l-0.021,0.395c0.621,0.071,1.086,0.61,1.049,1.241
		C115.366,16.186,114.832,16.671,114.201,16.66z M116.28,14.455c-0.317-0.002-0.64-0.009-0.965-0.02l0.016-0.479
		c0.322,0.01,0.64,0.017,0.953,0.02L116.28,14.455z M117.244,14.452l-0.008-0.48c0.322-0.005,0.64-0.014,0.953-0.027l0.02,0.479
		C117.893,14.437,117.571,14.446,117.244,14.452z M119.174,14.372l-0.032-0.479c0.322-0.022,0.638-0.048,0.95-0.077l0.046,0.477
		C119.821,14.323,119.499,14.35,119.174,14.372z M121.097,14.188l-0.059-0.476c0.321-0.039,0.635-0.083,0.944-0.13l0.073,0.474
		C121.74,14.104,121.422,14.148,121.097,14.188z M126.106,15.668l0.001,0.005l-2.015,0.403l-0.461-2.305
		c-0.129,0.027-0.258,0.053-0.39,0.078l0.46,2.3c-0.624,0.097-1.219-0.309-1.344-0.933c-0.119-0.593,0.232-1.163,0.792-1.347
		c-0.048,0.009-0.094,0.02-0.142,0.028l-0.081-0.441c-0.533-0.022-1.002-0.401-1.111-0.947c-0.125-0.625,0.268-1.229,0.881-1.379
		l0.45,2.249c0.131-0.025,0.261-0.051,0.39-0.078l-0.451-2.255l2.015-0.403l0.001,0.005c0.624-0.097,1.219,0.309,1.344,0.933
		c0.113,0.563-0.198,1.107-0.709,1.319l0.096,0.338c-0.304,0.086-0.616,0.17-0.934,0.249l-0.092-0.37l-0.937,0.188l0.083,0.383
		l1.691-0.339l0.001,0.005c0.624-0.097,1.219,0.309,1.344,0.933C127.111,14.913,126.719,15.518,126.106,15.668z M126.757,12.958
		l-0.146-0.456c0.308-0.099,0.609-0.2,0.901-0.305l0.161,0.452C127.376,12.754,127.071,12.859,126.757,12.958z M128.578,12.307
		l-0.177-0.446c0.302-0.119,0.594-0.242,0.878-0.365l0.192,0.439C129.183,12.06,128.886,12.185,128.578,12.307z M130.781,11.322
		c-0.14,0.07-0.283,0.14-0.429,0.211l-0.207-0.432c0.144-0.068,0.284-0.137,0.422-0.207l0.438-0.216l0.211,0.431L130.781,11.322z
		 M132.076,10.7l-0.201-0.435c0.286-0.132,0.581-0.263,0.884-0.392l0.188,0.442C132.648,10.44,132.358,10.569,132.076,10.7z
		 M133.655,9.507c0.087-0.034,0.18-0.066,0.269-0.099c-0.381-0.1-0.705-0.382-0.831-0.786c-0.189-0.608,0.139-1.25,0.733-1.463
		l0.638,2.05c0.034-0.012,0.065-0.024,0.099-0.036l0.159,0.453c-0.304,0.106-0.602,0.217-0.893,0.329L133.655,9.507z
		 M133.913,11.257c-0.189-0.608,0.139-1.25,0.733-1.463l0.701,2.252C134.738,12.208,134.103,11.866,133.913,11.257z M137.689,11.317
		l0.002,0.005l-1.962,0.61l-0.704-2.261l1.962-0.61l0.002,0.005c0.61-0.162,1.245,0.181,1.434,0.789
		C138.611,10.462,138.283,11.104,137.689,11.317z M139.328,8.521l-0.06-0.476c0.317-0.04,0.64-0.074,0.966-0.099l0.037,0.479
		C139.952,8.449,139.638,8.482,139.328,8.521z M142.166,8.364l-0.322-0.002c-0.211,0-0.419,0.003-0.626,0.009l-0.015-0.479
		c0.211-0.007,0.425-0.01,0.64-0.01l0.33,0.002L142.166,8.364z M144.057,8.485c-0.319-0.035-0.634-0.063-0.944-0.083l0.031-0.478
		c0.319,0.02,0.641,0.049,0.967,0.085L144.057,8.485z M144.468,9.608c0.112-0.5,0.526-0.849,1.007-0.909
		c-0.16-0.029-0.321-0.062-0.479-0.087l0.075-0.474c0.247,0.039,0.5,0.088,0.752,0.137c-0.552-0.199-0.888-0.774-0.757-1.362
		c0.138-0.622,0.742-1.016,1.363-0.905l-0.508,2.285c0.035,0.007,0.069,0.012,0.104,0.019l-0.097,0.47
		c-0.038-0.008-0.074-0.013-0.112-0.02l-0.498,2.244C144.71,10.843,144.33,10.23,144.468,9.608z M149.565,9.86
		c-0.26-0.101-0.518-0.193-0.775-0.282c0.253,0.274,0.372,0.662,0.285,1.054c-0.138,0.622-0.742,1.016-1.363,0.905l-0.001,0.005
		l-2.006-0.445l0.514-2.312l0.651,0.145l0.096-0.38l-0.662-0.147l0.514-2.312l2.006,0.445l-0.001,0.005
		c0.61,0.163,0.99,0.776,0.852,1.397c-0.138,0.622-0.742,1.016-1.363,0.905l-0.001,0.005l-0.933-0.207
		c0.176,0.048,0.35,0.092,0.528,0.145l-0.104,0.351l0.423,0.094l-0.001,0.005c0.178,0.048,0.334,0.137,0.465,0.251l0.139-0.405
		c0.301,0.103,0.603,0.214,0.91,0.332L149.565,9.86z M151.313,10.611c-0.291-0.138-0.58-0.268-0.867-0.391l0.189-0.441
		c0.292,0.126,0.586,0.258,0.882,0.398L151.313,10.611z M153.009,11.479c-0.207-0.112-0.413-0.222-0.616-0.328l-0.228-0.119
		l0.219-0.427l0.233,0.122c0.203,0.107,0.41,0.218,0.619,0.33L153.009,11.479z M154.685,12.407
		c-0.282-0.159-0.561-0.316-0.836-0.468l0.233-0.42c0.277,0.153,0.556,0.31,0.84,0.47L154.685,12.407z M155.361,14.308
		c0.285-0.57,0.967-0.805,1.543-0.546l-1.057,2.109C155.295,15.564,155.076,14.877,155.361,14.308z M159.582,16.424
		c-0.285,0.57-0.967,0.805-1.543,0.546l-0.002,0.005l-1.837-0.921l1.062-2.117l0.552,0.277l-0.635-0.371l0.242-0.415l0.074,0.043
		l1.004-2.003l1.837,0.921l-0.002,0.005c0.552,0.306,0.772,0.993,0.486,1.563c-0.285,0.57-0.967,0.805-1.543,0.546l-0.002,0.005
		l-0.05-0.025l0.684,0.4l-0.242,0.415l-0.208-0.122C159.726,15.521,159.792,16.003,159.582,16.424z M161.328,16.258l-0.831-0.482
		l0.24-0.415l0.831,0.48L161.328,16.258z M162.996,17.212l-0.836-0.475l0.238-0.416l0.834,0.473L162.996,17.212z M164.674,18.147
		c-0.281-0.154-0.561-0.309-0.84-0.464l0.234-0.419c0.277,0.155,0.556,0.309,0.836,0.463L164.674,18.147z M166.365,19.058
		c-0.284-0.15-0.567-0.301-0.848-0.453l0.227-0.423c0.281,0.151,0.562,0.302,0.844,0.45L166.365,19.058z M166.896,20.609
		c0.207-0.457,0.668-0.713,1.14-0.688c-0.274-0.138-0.548-0.277-0.82-0.418l0.219-0.427c0.284,0.146,0.568,0.292,0.854,0.435
		l-0.207,0.413c0.112,0.01,0.224,0.031,0.333,0.075l-0.971,2.15C166.881,21.867,166.633,21.19,166.896,20.609z M171.561,21.591
		c-0.164-0.072-0.328-0.147-0.492-0.221c0.244,0.332,0.312,0.779,0.13,1.182c-0.262,0.581-0.934,0.843-1.52,0.608l-0.002,0.005
		l-1.873-0.845l0.975-2.158l0.214,0.097l0.156-0.317c0.287,0.141,0.575,0.28,0.863,0.416l-0.141,0.299l0.781,0.353l-0.002,0.005
		c0.032,0.017,0.06,0.039,0.09,0.057l0.141-0.307c0.29,0.134,0.581,0.264,0.873,0.391L171.561,21.591z M172.335,20.036
		c-0.262,0.581-0.934,0.843-1.52,0.608l-0.002,0.005l-1.873-0.845l0.975-2.158l1.873,0.845l-0.002,0.005
		C172.35,18.778,172.598,19.456,172.335,20.036z M173.337,22.338c-0.298-0.119-0.595-0.241-0.892-0.366l0.186-0.442
		c0.294,0.124,0.589,0.245,0.884,0.363L173.337,22.338z M175.142,23.021c-0.302-0.107-0.604-0.218-0.906-0.332l0.171-0.449
		c0.298,0.113,0.597,0.223,0.896,0.329L175.142,23.021z M176.974,23.626c-0.306-0.093-0.614-0.19-0.921-0.292l0.151-0.456
		c0.303,0.1,0.607,0.196,0.909,0.288L176.974,23.626z M178.029,23.431c0.308,0.085,0.614,0.164,0.922,0.24l-0.114,0.466
		c-0.311-0.076-0.623-0.156-0.936-0.243L178.029,23.431z M183.236,26.086c-0.108,0.628-0.691,1.051-1.317,0.971l-0.001,0.005
		l-2.026-0.346l0.388-2.268c-0.13-0.025-0.26-0.049-0.391-0.075l-0.388,2.271c-0.617-0.133-1.027-0.726-0.919-1.354
		c0.101-0.59,0.624-0.994,1.206-0.974l0.089-0.422c-0.565-0.169-0.931-0.729-0.83-1.325c0.108-0.628,0.691-1.051,1.317-0.971
		l-0.394,2.302c0.13,0.027,0.26,0.05,0.391,0.075l0.396-2.315l2.026,0.346l-0.001,0.005c0.617,0.133,1.027,0.726,0.919,1.354
		c-0.09,0.522-0.509,0.897-1.007,0.966l-0.046,0.466c-0.07-0.007-0.14-0.017-0.209-0.024
		C182.986,24.953,183.335,25.502,183.236,26.086z M184.586,24.896c-0.321-0.002-0.645-0.011-0.97-0.027l0.025-0.479
		c0.317,0.016,0.633,0.025,0.948,0.027L184.586,24.896z M185.558,24.875l-0.023-0.479c0.316-0.015,0.631-0.038,0.944-0.07
		l0.049,0.477C186.206,24.836,185.883,24.86,185.558,24.875z M187.493,24.677l-0.077-0.473c0.311-0.05,0.621-0.11,0.927-0.179
		l0.106,0.468C188.132,24.563,187.813,24.625,187.493,24.677z M189.264,23.79c0.298-0.081,0.604-0.169,0.92-0.261l0.135,0.46
		c-0.319,0.094-0.628,0.181-0.928,0.263L189.264,23.79z M190.238,25.242c-0.179-0.611,0.159-1.248,0.757-1.451l0.663,2.264
		C191.046,26.206,190.417,25.853,190.238,25.242z M194.012,25.363l0.002,0.005l-1.972,0.578l-0.666-2.273l1.972-0.578l0.002,0.005
		c0.613-0.152,1.241,0.201,1.421,0.812C194.948,24.524,194.61,25.161,194.012,25.363z M194.895,22.499l-0.157-0.453l0.905-0.318
		l0.16,0.452L194.895,22.499z M196.709,21.857l-0.163-0.452l0.902-0.326l0.164,0.451L196.709,21.857z M198.515,21.202l-0.165-0.451
		l0.901-0.331l0.167,0.45L198.515,21.202z M200.319,20.537l-0.167-0.449l0.9-0.334l0.167,0.449L200.319,20.537z M201.925,21.209
		c-0.225-0.596,0.063-1.256,0.643-1.505l0.836,2.205C202.805,22.108,202.151,21.805,201.925,21.209z M205.697,21.04l0.002,0.005
		l-1.921,0.728l-0.838-2.211l-0.82,0.306l-0.168-0.449l0.092-0.035c-0.474-0.003-0.919-0.287-1.097-0.757
		c-0.226-0.596,0.063-1.256,0.643-1.505l0.808,2.13l0.372-0.139l-0.81-2.136l1.921-0.728l0.002,0.005
		c0.599-0.199,1.253,0.104,1.479,0.7c0.225,0.596-0.063,1.256-0.643,1.505l0.002,0.005l-0.045,0.017l0.137,0.368l0.046-0.018
		l0.002,0.005c0.599-0.199,1.253,0.104,1.479,0.7C206.566,20.13,206.277,20.792,205.697,21.04z M205.718,18.526l-0.168-0.449
		l0.9-0.335l0.167,0.449L205.718,18.526z M207.517,17.858l-0.167-0.45l0.9-0.332l0.165,0.45L207.517,17.858z M209.316,17.197
		l-0.165-0.451l0.903-0.329l0.164,0.451L209.316,17.197z M211.121,16.541l-0.163-0.452l0.907-0.325l0.161,0.452L211.121,16.541z
		 M212.77,15.442l0.415-0.146c-0.442-0.053-0.836-0.354-0.983-0.805c-0.197-0.606,0.123-1.252,0.713-1.472l0.693,2.128l0.068-0.024
		l0.159,0.453l-0.905,0.318L212.77,15.442z M213.056,17.117c-0.197-0.606,0.123-1.252,0.713-1.472l0.73,2.242
		C213.892,18.056,213.254,17.722,213.056,17.117z M216.832,17.128l0.002,0.005l-1.953,0.636l-0.733-2.252l1.953-0.636l0.002,0.005
		c0.607-0.17,1.247,0.164,1.444,0.77C217.742,16.261,217.423,16.907,216.832,17.128z M218.378,14.045l-0.147-0.456
		c0.306-0.099,0.611-0.196,0.916-0.292l0.144,0.457C218.989,13.849,218.684,13.946,218.378,14.045z M220.207,13.468l-0.141-0.459
		c0.309-0.095,0.615-0.188,0.921-0.279l0.138,0.46C220.82,13.281,220.515,13.373,220.207,13.468z M222.043,12.919l-0.134-0.46
		c0.31-0.09,0.619-0.178,0.926-0.264l0.13,0.462C222.66,12.742,222.353,12.83,222.043,12.919z M224.65,9.109l0.379,2.328
		c-0.627,0.075-1.207-0.353-1.31-0.981C223.617,9.826,224.032,9.236,224.65,9.109z M224.164,13.18
		c-0.055-0.338,0.042-0.662,0.237-0.911c-0.171,0.045-0.341,0.088-0.513,0.134l-0.124-0.464c0.313-0.084,0.623-0.166,0.932-0.244
		l0.068,0.266c0.102-0.057,0.211-0.103,0.331-0.127l0.38,2.328C224.847,14.236,224.266,13.809,224.164,13.18z M227.894,13.767
		l0.001,0.005l-2.028,0.331l-0.381-2.338l0.209-0.034l-0.064-0.267c0.316-0.076,0.629-0.15,0.939-0.22l0.075,0.332l0.87-0.141
		l0.001,0.005c0.027-0.003,0.053,0,0.079-0.002l-0.083-0.398c0.319-0.067,0.636-0.13,0.947-0.188l0.089,0.471
		c-0.222,0.042-0.447,0.088-0.673,0.134c0.476,0.089,0.869,0.46,0.951,0.965C228.926,13.05,228.511,13.639,227.894,13.767z
		 M229.486,11.156l-0.078-0.473c0.324-0.053,0.643-0.102,0.956-0.145l0.064,0.475C230.12,11.055,229.805,11.103,229.486,11.156z
		 M231.374,10.896l-0.05-0.477c0.328-0.035,0.651-0.063,0.965-0.085l0.033,0.479C232.012,10.834,231.697,10.862,231.374,10.896z
		 M234.215,10.777c-0.305-0.011-0.618-0.013-0.945-0.006l-0.01-0.479c0.338-0.008,0.66-0.006,0.973,0.006L234.215,10.777z
		 M234.816,11.742c0.116-0.42,0.448-0.718,0.841-0.821c-0.022-0.004-0.042-0.01-0.064-0.014l0.075-0.474
		c0.337,0.054,0.662,0.125,0.965,0.211l-0.131,0.461c-0.098-0.028-0.211-0.044-0.313-0.068l-0.595,2.145
		C234.994,12.988,234.645,12.356,234.816,11.742z M239.365,13.004c-0.171,0.614-0.794,0.976-1.409,0.833l-0.002,0.005l-1.98-0.549
		l0.633-2.282l1.98,0.549l-0.002,0.005C239.188,11.759,239.536,12.39,239.365,13.004z M240.103,10.344
		c-0.171,0.614-0.794,0.976-1.409,0.833l-0.002,0.005l-1.98-0.549l0.633-2.282l1.98,0.549l-0.002,0.005
		C239.925,9.098,240.273,9.73,240.103,10.344z"/>
</g>
</svg>
